<?xml version="1.0" encoding="utf-8"?>
<svg xmlns="http://www.w3.org/2000/svg">

	<!-- ids have to be defined in glyphs.constant.ts -->
	<defs>

		<symbol id="update" viewBox="0 -960 960 960">
			<path d="m 480,0 q -100,0 -187.33333,-38 -87.33334,-38 -152,-102.66667 Q 76,-205.33333 38,-292.66667 0,-380 0,-480 q 0,-100 38,-187.33333 38,-87.33334 102.66667,-152 Q 205.33333,-884 292.66667,-922 380,-960 480,-960 q 109.33333,0 207.33333,46.66667 98,46.66666 166,132 V -906.66667 H 960 v 320 H 640 V -693.33333 H 786.66667 Q 732,-768 652,-810.66667 q -80,-42.66666 -172,-42.66666 -156,0 -264.66667,108.66666 Q 106.66667,-636 106.66667,-480 q 0,156 108.66666,264.66667 Q 324,-106.66667 480,-106.66667 q 140,0 244.66667,-90.66666 Q 829.33333,-288 848,-426.66667 H 957.33333 Q 937.33333,-244 800.66667,-122 664,0 480,0 Z M 629.33333,-256 426.66667,-458.66667 v -288 h 106.66666 v 245.33334 L 704,-330.66667 Z"/>
		</symbol>

		<symbol id="sprint" viewBox="0 -960 960 720">
			<path d="m 192,-240 -61.0909,-63 418.90908,-432 H 436.36364 v 90 H 349.0909 v -180 h 254.18182 q 17.45456,0 33.81818,6.75 16.36364,6.75 28.36364,19.125 l 130.9091,133.875 q 29.45454,30.375 72,47.25 42.54546,16.875 91.63636,18 v 90 q -67.63636,0 -122.72728,-21.375 -55.0909,-21.375 -97.63636,-64.125 L 696,-642.75 l -96,99 98.18182,101.25 -285.81818,169.875 -43.63636,-77.625 187.63636,-111.375 -74.18182,-76.5 z M 87.272728,-555 v -90 H 305.45454 v 90 z M 0,-690 v -90 h 218.18182 v 90 z m 806.18182,-90 q -36,0 -62.18182,-26.4375 -26.18182,-26.4375 -26.18182,-63.5625 0,-37.125 26.18182,-63.5625 Q 770.18182,-960 806.18182,-960 q 36,0 62.18182,26.4375 26.18182,26.4375 26.18182,63.5625 0,37.125 -26.18182,63.5625 Q 842.18182,-780 806.18182,-780 Z M 87.272728,-825 v -90 H 305.45454 v 90 z"/>
		</symbol>

		<symbol id="heart" viewBox="0 -960 960 880">
			<path d="m 480,-80 -69.6,-62.34332 Q 289.2,-251.44414 210,-330.57221 130.8,-409.70027 84,-472.64305 37.2,-535.58583 18.6,-588.33787 0,-641.08992 0,-696.23978 0,-808.93733 75.6,-884.46866 151.2,-960 264,-960 q 62.4,0 118.8,26.37602 56.4,26.37602 97.2,74.33243 40.8,-47.95641 97.2,-74.33243 Q 633.6,-960 696,-960 q 112.8,0 188.4,75.53134 75.6,75.53133 75.6,188.22888 0,55.14986 -18.6,107.90191 -18.6,52.75204 -65.4,115.69482 -46.8,62.94278 -126,142.07084 -79.2,79.12807 -200.4,188.22889 z m 0,-129.48229 q 115.2,-103.10627 189.6,-176.83924 74.4,-73.73297 117.6,-128.28337 43.2,-54.55041 60,-97.11172 16.8,-42.56131 16.8,-84.52316 0,-71.93461 -48,-119.89101 -48,-47.9564 -120,-47.9564 -56.4,0 -104.4,31.77111 -48,31.77112 -66,80.92643 h -91.2 q -18,-49.15531 -66,-80.92643 -48,-31.77111 -104.4,-31.77111 -72,0 -120,47.9564 -48,47.9564 -48,119.89101 0,41.96185 16.8,84.52316 16.8,42.56131 60,97.11172 43.2,54.5504 117.6,128.28337 74.4,73.73297 189.6,176.83924 z m 0,-327.30245 z"/>
		</symbol>

		<symbol id="swap_vert" viewBox="0 -960 800 960">
			<path d="M 200,-432 V -776.4 L 71.25,-652.8 0,-720 250,-960 500,-720 428.75,-652.8 300,-776.4 V -432 Z M 550,0 300,-240 371.25,-307.2 500,-183.6 V -528 h 100 v 344.4 L 728.75,-307.2 800,-240 Z"/>
		</symbol>

		<symbol id="heart_filled" viewBox="0 -960 960 880">
			<path d="m 480,-80 -69.6,-62.34332 Q 289.2,-251.44414 210,-330.57221 130.8,-409.70027 84,-472.64305 37.2,-535.58583 18.6,-588.33787 0,-641.08992 0,-696.23978 0,-808.93733 75.6,-884.46866 151.2,-960 264,-960 q 62.4,0 118.8,26.37602 56.4,26.37602 97.2,74.33243 40.8,-47.95641 97.2,-74.33243 Q 633.6,-960 696,-960 q 112.8,0 188.4,75.53134 75.6,75.53133 75.6,188.22888 0,55.14986 -18.6,107.90191 -18.6,52.75204 -65.4,115.69482 -46.8,62.94278 -126,142.07084 -79.2,79.12807 -200.4,188.22889 z"/>
		</symbol>

		<symbol id="category" viewBox="0 -960 911.99997 960">
			<path d="m 168,-528 264,-432 264,432 z M 696,0 q -90,0 -153,-63 -63,-63 -63,-153 0,-90 63,-153 63,-63 153,-63 90,0 153,63 63,63 63,153 0,90 -63,153 Q 786,0 696,0 Z M -1.9073486e-6,-24 V -408 H 384 V -24 Z M 696,-96 q 50.4,0 85.2,-34.8 34.8,-34.8 34.8,-85.2 0,-50.4 -34.8,-85.2 -34.8,-34.8 -85.2,-34.8 -50.4,0 -85.2,34.8 -34.8,34.8 -34.8,85.2 0,50.4 34.8,85.2 Q 645.6,-96 696,-96 Z M 95.999998,-120 H 288 V -312 H 95.999998 Z M 338.4,-624 H 525.6 L 432,-775.2 Z m 93.6,0 z m -144,312 z m 408,96 z"/>
		</symbol>

	</defs>

</svg>
