<?xml version="1.0" encoding="utf-8"?>
<svg xmlns="http://www.w3.org/2000/svg">

	<!-- ids have to be defined in glyphs.constant.ts -->
	<!-- download the .svg file from goohttps://fonts.google.com/icons -->
	<!-- for filled version, there's a slider under "Filters" -->
	<!-- open .svg file in Inkscape, click and select the path object -->
	<!-- "Export" > "Plain SVG" > Enter name, export as SVG -->
	<!-- open exported .svg file in editor, copy "viewBox" & "<path d=../>" -->
	<defs>

		<symbol id="update" viewBox="0 -960 960 960">
			<path d="m 480,0 q -100,0 -187.33333,-38 -87.33334,-38 -152,-102.66667 Q 76,-205.33333 38,-292.66667 0,-380 0,-480 q 0,-100 38,-187.33333 38,-87.33334 102.66667,-152 Q 205.33333,-884 292.66667,-922 380,-960 480,-960 q 109.33333,0 207.33333,46.66667 98,46.66666 166,132 V -906.66667 H 960 v 320 H 640 V -693.33333 H 786.66667 Q 732,-768 652,-810.66667 q -80,-42.66666 -172,-42.66666 -156,0 -264.66667,108.66666 Q 106.66667,-636 106.66667,-480 q 0,156 108.66666,264.66667 Q 324,-106.66667 480,-106.66667 q 140,0 244.66667,-90.66666 Q 829.33333,-288 848,-426.66667 H 957.33333 Q 937.33333,-244 800.66667,-122 664,0 480,0 Z M 629.33333,-256 426.66667,-458.66667 v -288 h 106.66666 v 245.33334 L 704,-330.66667 Z"/>
		</symbol>

		<symbol id="sprint" viewBox="0 -960 960 720">
			<path d="m 192,-240 -61.0909,-63 418.90908,-432 H 436.36364 v 90 H 349.0909 v -180 h 254.18182 q 17.45456,0 33.81818,6.75 16.36364,6.75 28.36364,19.125 l 130.9091,133.875 q 29.45454,30.375 72,47.25 42.54546,16.875 91.63636,18 v 90 q -67.63636,0 -122.72728,-21.375 -55.0909,-21.375 -97.63636,-64.125 L 696,-642.75 l -96,99 98.18182,101.25 -285.81818,169.875 -43.63636,-77.625 187.63636,-111.375 -74.18182,-76.5 z M 87.272728,-555 v -90 H 305.45454 v 90 z M 0,-690 v -90 h 218.18182 v 90 z m 806.18182,-90 q -36,0 -62.18182,-26.4375 -26.18182,-26.4375 -26.18182,-63.5625 0,-37.125 26.18182,-63.5625 Q 770.18182,-960 806.18182,-960 q 36,0 62.18182,26.4375 26.18182,26.4375 26.18182,63.5625 0,37.125 -26.18182,63.5625 Q 842.18182,-780 806.18182,-780 Z M 87.272728,-825 v -90 H 305.45454 v 90 z"/>
		</symbol>

		<symbol id="swap_vert" viewBox="0 -960 800 960">
			<path d="M 200,-432 V -776.4 L 71.25,-652.8 0,-720 250,-960 500,-720 428.75,-652.8 300,-776.4 V -432 Z M 550,0 300,-240 371.25,-307.2 500,-183.6 V -528 h 100 v 344.4 L 728.75,-307.2 800,-240 Z"/>
		</symbol>

		<symbol id="category" viewBox="0 -960 912 960">
			<path d="m 168,-528 264,-432 264,432 z M 696,0 q -90,0 -153,-63 -63,-63 -63,-153 0,-90 63,-153 63,-63 153,-63 90,0 153,63 63,63 63,153 0,90 -63,153 Q 786,0 696,0 Z M -1.9073486e-6,-24 V -408 H 384 V -24 Z M 696,-96 q 50.4,0 85.2,-34.8 34.8,-34.8 34.8,-85.2 0,-50.4 -34.8,-85.2 -34.8,-34.8 -85.2,-34.8 -50.4,0 -85.2,34.8 -34.8,34.8 -34.8,85.2 0,50.4 34.8,85.2 Q 645.6,-96 696,-96 Z M 95.999998,-120 H 288 V -312 H 95.999998 Z M 338.4,-624 H 525.6 L 432,-775.2 Z m 93.6,0 z m -144,312 z m 408,96 z"/>
		</symbol>

		<symbol id="add" viewBox="0 -960 560 560">
			<path d="M 240,-640 H 0 v -80 h 240 v -240 h 80 v 240 h 240 v 80 H 320 v 240 h -80 z"/>
		</symbol>

		<symbol id="add_circle" viewBox="0 -960 800 800">
			<path d="m 360,-360 h 80 v -160 h 160 v -80 H 440 v -160 h -80 v 160 H 200 v 80 h 160 z m 40,200 q -83,0 -156,-31.5 Q 171,-223 117,-277 63,-331 31.5,-404 0,-477 0,-560 0,-643 31.5,-716 63,-789 117,-843 q 54,-54 127,-85.5 73,-31.5 156,-31.5 83,0 156,31.5 73,31.5 127,85.5 54,54 85.5,127 31.5,73 31.5,156 0,83 -31.5,156 -31.5,73 -85.5,127 -54,54 -127,85.5 -73,31.5 -156,31.5 z m 0,-80 q 134,0 227,-93 93,-93 93,-227 0,-134 -93,-227 -93,-93 -227,-93 -134,0 -227,93 -93,93 -93,227 0,134 93,227 93,93 227,93 z m 0,-320 z"/>
		</symbol>

		<symbol id="add_task" viewBox="0 -960 880 800">
			<path d="m 400,-160 q -83,0 -156,-31.5 Q 171,-223 117,-277 63,-331 31.5,-404 0,-477 0,-560 0,-643 31.5,-716 63,-789 117,-843 q 54,-54 127,-85.5 73,-31.5 156,-31.5 65,0 123,19 58,19 107,53 l -58,59 q -38,-24 -81,-37.5 -43,-13.5 -91,-13.5 -133,0 -226.5,93.5 Q 80,-693 80,-560 q 0,133 93.5,226.5 93.5,93.5 226.5,93.5 32,0 62,-6 30,-6 58,-17 l 60,61 q -41,20 -86,31 -45,11 -94,11 z m 280,-80 V -360 H 560 v -80 h 120 v -120 h 80 v 120 h 120 v 80 H 760 v 120 z m -336,-136 -170,-170 56,-56 114,114 400,-401 56,56 z"/>
		</symbol>

		<symbol id="backspace" viewBox="0 -960 800 640">
			<path d="m 376,-480 104,-104 104,104 56,-56 -104,-104 104,-104 -56,-56 -104,104 -104,-104 -56,56 104,104 -104,104 z m -96,160 q -19,0 -36,-8.5 -17,-8.5 -28,-23.5 L 0,-640 216,-928 q 11,-15 28,-23.5 17,-8.5 36,-8.5 h 440 q 33,0 56.5,23.5 23.5,23.5 23.5,56.5 v 480 q 0,33 -23.5,56.5 Q 753,-320 720,-320 Z M 100,-640 280,-400 H 720 V -880 H 280 Z m 400,0 z"/>
		</symbol>

		<symbol id="bookmark_add" viewBox="0 -960 640 720">
			<path d="M 0,-240 V -880 Q 0,-913 23.5,-936.5 47,-960 80,-960 h 240 v 80 H 80 v 518 l 200,-86 200,86 v -278 h 80 v 400 L 280,-360 Z m 80,-640 h 240 z m 400,160 v -80 h -80 v -80 h 80 v -80 h 80 v 80 h 80 v 80 h -80 v 80 z"/>
		</symbol>

		<symbol id="bookmarks" viewBox="0 -960 640 800">
			<path d="M 0,-160 V -720 Q 0,-753 23.5,-776.5 47,-800 80,-800 h 320 q 33,0 56.5,23.5 23.5,23.5 23.5,56.5 v 560 L 240,-280 Z m 80,-121 160,-86 160,86 V -720 H 80 Z m 480,-39 V -880 H 120 v -80 h 440 q 33,0 56.5,23.5 23.5,23.5 23.5,56.5 v 560 z M 80,-720 h 320 z"/>
		</symbol>

		<symbol id="cancel" viewBox="0 -960 800 800">
			<path d="m 256,-360 144,-144 144,144 56,-56 -144,-144 144,-144 -56,-56 -144,144 -144,-144 -56,56 144,144 -144,144 z m 144,200 q -83,0 -156,-31.5 Q 171,-223 117,-277 63,-331 31.5,-404 0,-477 0,-560 0,-643 31.5,-716 63,-789 117,-843 q 54,-54 127,-85.5 73,-31.5 156,-31.5 83,0 156,31.5 73,31.5 127,85.5 54,54 85.5,127 31.5,73 31.5,156 0,83 -31.5,156 -31.5,73 -85.5,127 -54,54 -127,85.5 -73,31.5 -156,31.5 z m 0,-80 q 134,0 227,-93 93,-93 93,-227 0,-134 -93,-227 -93,-93 -227,-93 -134,0 -227,93 -93,93 -93,227 0,134 93,227 93,93 227,93 z m 0,-320 z"/>
		</symbol>

		<symbol id="check" viewBox="0 -960 652 481">
			<path d="M 228,-479 0,-707 l 57,-57 171,171 367,-367 57,57 z"/>
		</symbol>

		<symbol id="check_box" viewBox="0 -960 720 720">
			<path d="m 304,-432 282,-282 -56,-56 -226,226 -114,-114 -56,56 z M 80,-240 Q 47,-240 23.5,-263.5 0,-287 0,-320 V -880 Q 0,-913 23.5,-936.5 47,-960 80,-960 h 560 q 33,0 56.5,23.5 23.5,23.5 23.5,56.5 v 560 q 0,33 -23.5,56.5 Q 673,-240 640,-240 Z m 0,-80 H 640 V -880 H 80 Z m 0,-560 v 560 z"/>
		</symbol>

		<symbol id="check_box_outline_blank" viewBox="0 -960 720 720">
			<path d="M 80,-240 Q 47,-240 23.5,-263.5 0,-287 0,-320 V -880 Q 0,-913 23.5,-936.5 47,-960 80,-960 h 560 q 33,0 56.5,23.5 23.5,23.5 23.5,56.5 v 560 q 0,33 -23.5,56.5 Q 673,-240 640,-240 Z m 0,-80 H 640 V -880 H 80 Z"/>
		</symbol>

		<symbol id="check_circle" viewBox="0 -960 800 800">
			<path d="m 344,-376 282,-282 -56,-56 -226,226 -114,-114 -56,56 z m 56,216 q -83,0 -156,-31.5 Q 171,-223 117,-277 63,-331 31.5,-404 0,-477 0,-560 0,-643 31.5,-716 63,-789 117,-843 q 54,-54 127,-85.5 73,-31.5 156,-31.5 83,0 156,31.5 73,31.5 127,85.5 54,54 85.5,127 31.5,73 31.5,156 0,83 -31.5,156 -31.5,73 -85.5,127 -54,54 -127,85.5 -73,31.5 -156,31.5 z m 0,-80 q 134,0 227,-93 93,-93 93,-227 0,-134 -93,-227 -93,-93 -227,-93 -134,0 -227,93 -93,93 -93,227 0,134 93,227 93,93 227,93 z m 0,-320 z"/>
		</symbol>

		<symbol id="chevron_left" viewBox="0 -960 296 480">
			<path d="M 240,-480 0,-720 l 240,-240 56,56 -184,184 184,184 z"/>
		</symbol>

		<symbol id="chevron_right" viewBox="0 -960 296 480">
			<path d="M 184,-720 0,-904 56,-960 296,-720 56,-480 0,-536 Z"/>
		</symbol>

		<symbol id="clear_all" viewBox="0 -960 720 400">
			<path d="m 0,-560 v -80 h 560 v 80 z m 80,-160 v -80 h 560 v 80 z m 80,-160 v -80 h 560 v 80 z"/>
		</symbol>

		<symbol id="close" viewBox="0 -960 560 560">
			<path d="M 56,-400 0,-456 224,-680 0,-904 l 56,-56 224,224 224,-224 56,56 -224,224 224,224 -56,56 -224,-224 z"/>
		</symbol>

		<symbol id="cloud_download" viewBox="0 -960 880 636">
			<path d="M 220,-324 Q 129,-324 64.5,-387 0,-450 0,-541 q 0,-78 47,-139 47,-61 123,-78 17,-72 85,-137 68,-65 145,-65 33,0 56.5,23.5 23.5,23.5 23.5,56.5 v 242 l 64,-62 56,56 -160,160 -160,-160 56,-56 64,62 v -242 q -76,14 -118,73.5 -42,59.5 -42,122.5 h -20 q -58,0 -99,41 -41,41 -41,99 0,58 41,99 41,41 99,41 h 480 q 42,0 71,-29 29,-29 29,-71 0,-42 -29,-71 -29,-29 -71,-29 h -60 v -80 q 0,-48 -22,-89.5 -22,-41.5 -58,-70.5 v -93 q 74,35 117,103.5 43,68.5 43,149.5 69,8 114.5,59.5 45.5,51.5 45.5,120.5 0,75 -52.5,127.5 Q 775,-324 700,-324 Z m 220,-358 z"/>
		</symbol>

		<symbol id="cloud_sync" viewBox="0 -960 800 640">
			<path d="m 3.7841797e-6,-320 v -80 H 109 Q 58.000004,-444 29.000004,-506 3.7841797e-6,-568 3.7841797e-6,-640 3.7841797e-6,-752 68.000004,-837.5 136,-923 240,-950 v 84 q -70,25 -115,86.5 -44.999996,61.5 -44.999996,139.5 0,54 21.499996,99.5 21.5,45.5 58.5,78.5 v -98 h 80 v 240 z M 440,-320 q -50,0 -85,-35 -35,-35 -35,-85 0,-48 33,-82.5 33,-34.5 81,-36.5 17,-36 50.5,-58.5 33.5,-22.5 75.5,-22.5 53,0 91.5,34.5 38.5,34.5 46.5,85.5 42,0 72,29 30,29 30,70 0,42 -29,71.5 -29,29.5 -71,29.5 z m 116,-360 q -7,-41 -27,-76 -20,-35 -49,-62 v 98 h -80 v -240 h 240 v 80 H 531 q 43,38 70.5,89 27.5,51 35.5,111 z m -116,280 h 260 q 8,0 14,-6 6,-6 6,-14 0,-8 -6,-14 -6,-6 -14,-6 h -70 v -50 q 0,-29 -20.5,-49.5 Q 589,-560 560,-560 q -29,0 -49.5,20.5 Q 490,-519 490,-490 v 10 h -50 q -17,0 -28.5,11.5 -11.5,11.5 -11.5,28.5 0,17 11.5,28.5 11.5,11.5 28.5,11.5 z m 120,-80 z"/>
		</symbol>

		<symbol id="cloud_upload" viewBox="0 -960 880 640">
			<path d="M 220,-320 Q 129,-320 64.5,-383 0,-446 0,-537 q 0,-78 47,-139 47,-61 123,-78 25,-92 100,-149 75,-57 170,-57 117,0 198.5,81.5 81.5,81.5 81.5,198.5 69,8 114.5,59.5 45.5,51.5 45.5,120.5 0,75 -52.5,127.5 Q 775,-320 700,-320 H 480 q -33,0 -56.5,-23.5 Q 400,-367 400,-400 v -206 l -64,62 -56,-56 160,-160 160,160 -56,56 -64,-62 v 206 h 220 q 42,0 71,-29 29,-29 29,-71 0,-42 -29,-71 -29,-29 -71,-29 h -60 v -80 q 0,-83 -58.5,-141.5 Q 523,-880 440,-880 357,-880 298.5,-821.5 240,-763 240,-680 h -20 q -58,0 -99,41 -41,41 -41,99 0,58 41,99 41,41 99,41 h 100 v 80 z m 220,-280 z"/>
		</symbol>

		<symbol id="code" viewBox="0 -960 800 480">
			<path d="M 240,-480 0,-720 l 240,-240 57,57 -184,184 183,183 z m 320,0 -57,-57 184,-184 -183,-183 56,-56 240,240 z"/>
		</symbol>

		<symbol id="code_blocks" viewBox="0 -960 720 720">
			<path d="m 264,-456 56,-57 -87,-87 87,-87 -56,-57 -144,144 z m 192,0 144,-144 -144,-144 -56,57 87,87 -87,87 z M 80,-240 Q 47,-240 23.5,-263.5 0,-287 0,-320 V -880 Q 0,-913 23.5,-936.5 47,-960 80,-960 h 560 q 33,0 56.5,23.5 23.5,23.5 23.5,56.5 v 560 q 0,33 -23.5,56.5 Q 673,-240 640,-240 Z m 0,-80 H 640 V -880 H 80 Z m 0,-560 v 560 z"/>
		</symbol>

		<symbol id="colors" viewBox="0 -960 800 760">
			<path d="M 266,-220 20,-466 q -10,-10 -15,-22 -5,-12 -5,-25 0,-13 5,-25 5,-12 15,-22 l 230,-229 -106,-106 62,-65 400,400 q 10,10 14.5,22 4.5,12 4.5,25 0,13 -4.5,25 -4.5,12 -14.5,22 l -246,246 q -10,10 -22,15 -12,5 -25,5 -13,0 -25,-5 -12,-5 -22,-15 z m 47,-506 -214,214 h 428 z m 399,526 q -36,0 -61,-25.5 -25,-25.5 -25,-62.5 0,-27 13.5,-51 13.5,-24 30.5,-47 l 42,-54 44,54 q 16,23 30,47 14,24 14,51 0,37 -26,62.5 -26,25.5 -62,25.5 z"/>
		</symbol>

		<symbol id="contact_support" viewBox="0 -960 680 800">
			<path d="m 360,-160 -10,-120 h -10 q -142,0 -241,-99 -99,-99 -99,-241 0,-142 99,-241 99,-99 241,-99 71,0 132.5,26.5 61.5,26.5 108,73 46.5,46.5 73,108 26.5,61.5 26.5,132.5 0,75 -24.5,144 -24.5,69 -67,128 -42.5,59 -101,107 -58.5,48 -127.5,81 z m 80,-146 Q 511,-366 555.5,-446.5 600,-527 600,-620 600,-729 524.5,-804.5 449,-880 340,-880 231,-880 155.5,-804.5 80,-729 80,-620 80,-511 155.5,-435.5 231,-360 340,-360 h 100 z m -101,-95 q 17,0 29,-12 12,-12 12,-29 0,-17 -12,-29 -12,-12 -29,-12 -17,0 -29,12 -12,12 -12,29 0,17 12,29 12,12 29,12 z m -29,-127 h 60 q 0,-30 6,-42 6,-12 38,-44 18,-18 30,-39 12,-21 12,-45 0,-51 -34.5,-76.5 Q 387,-800 340,-800 q -44,0 -74,24.5 -30,24.5 -42,59.5 l 56,22 q 5,-17 19,-33.5 14,-16.5 41,-16.5 27,0 40.5,15 13.5,15 13.5,33 0,17 -10,30.5 -10,13.5 -24,27.5 -35,30 -42.5,47.5 -7.5,17.5 -7.5,62.5 z m 30,-65 z"/>
		</symbol>

		<symbol id="content_paste" viewBox="0 -960 720 800">
			<path d="M 80,-160 Q 47,-160 23.5,-183.5 0,-207 0,-240 V -800 Q 0,-833 23.5,-856.5 47,-880 80,-880 h 167 q 11,-35 43,-57.5 32,-22.5 70,-22.5 40,0 71.5,22.5 31.5,22.5 42.5,57.5 h 166 q 33,0 56.5,23.5 23.5,23.5 23.5,56.5 v 560 q 0,33 -23.5,56.5 Q 673,-160 640,-160 Z m 0,-80 h 560 v -560 h -80 v 120 H 160 V -800 H 80 Z m 280,-560 q 17,0 28.5,-11.5 Q 400,-823 400,-840 400,-857 388.5,-868.5 377,-880 360,-880 q -17,0 -28.5,11.5 -11.5,11.5 -11.5,28.5 0,17 11.5,28.5 11.5,11.5 28.5,11.5 z"/>
		</symbol>

		<symbol id="database" viewBox="0 -960 720 720">
			<path d="M 360,-240 Q 209,-240 104.5,-286.5 0,-333 0,-400 v -400 q 0,-66 105.5,-113 105.5,-47 254.5,-47 149,0 254.5,47 105.5,47 105.5,113 v 400 q 0,67 -104.5,113.5 Q 511,-240 360,-240 Z m 0,-479 q 89,0 179,-25.5 90,-25.5 101,-54.5 -11,-29 -100.5,-55 -89.5,-26 -179.5,-26 -91,0 -178.5,25.5 Q 94,-829 80,-799 q 14,30 101.5,55 87.5,25 178.5,25 z m 0,199 q 42,0 81,-4 39,-4 74.5,-11.5 35.5,-7.5 67,-18.5 31.5,-11 57.5,-25 v -120 q -26,14 -57.5,25 -31.5,11 -67,18.5 -35.5,7.5 -74.5,11.5 -39,4 -81,4 -42,0 -82,-4 -40,-4 -75.5,-11.5 Q 167,-663 136,-674 105,-685 80,-699 v 120 q 25,14 56,25 31,11 66.5,18.5 35.5,7.5 75.5,11.5 40,4 82,4 z m 0,200 q 46,0 93.5,-7 47.5,-7 87.5,-18.5 40,-11.5 67,-26 27,-14.5 32,-29.5 v -98 q -26,14 -57.5,25 -31.5,11 -67,18.5 -35.5,7.5 -74.5,11.5 -39,4 -81,4 -42,0 -82,-4 -40,-4 -75.5,-11.5 Q 167,-463 136,-474 105,-485 80,-499 v 99 q 5,15 31.5,29 26.5,14 66.5,25.5 40,11.5 88,18.5 48,7 94,7 z"/>
		</symbol>

		<symbol id="delete" viewBox="0 -960 640 720">
			<path d="M 120,-240 Q 87,-240 63.5,-263.5 40,-287 40,-320 V -840 H 0 v -80 h 200 v -40 h 240 v 40 h 200 v 80 h -40 v 520 q 0,33 -23.5,56.5 Q 553,-240 520,-240 Z M 520,-840 H 120 v 520 h 400 z m -320,440 h 80 v -360 h -80 z m 160,0 h 80 V -760 H 360 Z M 120,-840 v 520 z"/>
		</symbol>

		<symbol id="description" viewBox="0 -960 640 800">
			<path d="m 160,-320 h 320 v -80 H 160 Z m 0,-160 h 320 v -80 H 160 Z M 80,-160 Q 47,-160 23.5,-183.5 0,-207 0,-240 V -880 Q 0,-913 23.5,-936.5 47,-960 80,-960 h 320 l 240,240 v 480 q 0,33 -23.5,56.5 Q 593,-160 560,-160 Z M 360,-680 V -880 H 80 v 640 H 560 V -680 Z M 80,-880 v 200 -200 640 z"/>
		</symbol>

		<symbol id="dictionary" viewBox="0 -960 880 640">
			<path d="m 120,-551 h 45 l 23,-66 h 104 l 24,66 h 44 l -97,-258 h -46 z m 81,-103 38,-107 h 2 l 38,107 z m 319,-70 v -68 q 33,-14 67.5,-21 34.5,-7 72.5,-7 26,0 51,4 25,4 49,10 v 64 q -24,-9 -48.5,-13.5 -24.5,-4.5 -51.5,-4.5 -38,0 -73,9.5 -35,9.5 -67,26.5 z m 0,220 v -68 q 33,-14 67.5,-21 34.5,-7 72.5,-7 26,0 51,4 25,4 49,10 v 64 q -24,-9 -48.5,-13.5 -24.5,-4.5 -51.5,-4.5 -38,0 -73,9 -35,9 -67,27 z m 0,-110 v -68 q 33,-14 67.5,-21 34.5,-7 72.5,-7 26,0 51,4 25,4 49,10 v 64 q -24,-9 -48.5,-13.5 -24.5,-4.5 -51.5,-4.5 -38,0 -73,9.5 -35,9.5 -67,26.5 z m -300,134 q 47,0 91.5,10.5 44.5,10.5 88.5,31.5 v -394 q -41,-24 -87,-36 -46,-12 -93,-12 -36,0 -71.5,7 -35.5,7 -68.5,21 v 396 q 35,-12 69.5,-18 34.5,-6 70.5,-6 z m 260,42 q 44,-21 88.5,-31.5 44.5,-10.5 91.5,-10.5 36,0 70.5,6 34.5,6 69.5,18 v -396 q -33,-14 -68.5,-21 -35.5,-7 -71.5,-7 -47,0 -93,12 -46,12 -87,36 z m -40,118 q -48,-38 -104,-59 -56,-21 -116,-21 -42,0 -82.5,11 Q 97,-378 60,-358 39,-347 19.5,-359 0,-371 0,-394 v -482 q 0,-11 5.5,-21 5.5,-10 16.5,-15 46,-24 96,-36 50,-12 102,-12 58,0 113.5,15 55.5,15 106.5,45 51,-30 106.5,-45 55.5,-15 113.5,-15 52,0 102,12 50,12 96,36 11,5 16.5,15 5.5,10 5.5,21 v 482 q 0,23 -19.5,35 -19.5,12 -40.5,1 -37,-20 -77.5,-31 -40.5,-11 -82.5,-11 -60,0 -116,21 -56,21 -104,59 z M 240,-659 Z"/>
		</symbol>

		<symbol id="do_not_disturb_on" viewBox="0 -960 800 800">
			<path d="m 200,-520 h 400 v -80 H 200 Z m 200,360 q -83,0 -156,-31.5 Q 171,-223 117,-277 63,-331 31.5,-404 0,-477 0,-560 0,-643 31.5,-716 63,-789 117,-843 q 54,-54 127,-85.5 73,-31.5 156,-31.5 83,0 156,31.5 73,31.5 127,85.5 54,54 85.5,127 31.5,73 31.5,156 0,83 -31.5,156 -31.5,73 -85.5,127 -54,54 -127,85.5 -73,31.5 -156,31.5 z m 0,-80 q 134,0 227,-93 93,-93 93,-227 0,-134 -93,-227 -93,-93 -227,-93 -134,0 -227,93 -93,93 -93,227 0,134 93,227 93,93 227,93 z m 0,-320 z"/>
		</symbol>

		<symbol id="filter_alt" viewBox="0 -960 641.64703 640">
			<path d="m 280.82353,-320 q -17,0 -28.5,-11.5 -11.5,-11.5 -11.5,-28.5 V -600 L 8.8235321,-896 q -15,-20 -4.5,-42 10.4999999,-22 36.4999999,-22 H 600.82353 q 26,0 36.5,22 10.5,22 -4.5,42 l -232,296 v 240 q 0,17 -11.5,28.5 -11.5,11.5 -28.5,11.5 z m 40,-308 198,-252 h -396 z m 0,0 z"/>
		</symbol>

		<symbol id="filter_alt_off" viewBox="0 -960 792 792">
			<path d="m 536,-593 -57,-57 143,-182 H 297 l -80,-80 h 487 q 25,0 36,22 11,22 -4,42 z m 199,425 -231,-231 v 87 q 0,17 -11.5,28.5 Q 481,-272 464,-272 h -80 q -17,0 -28.5,-11.5 Q 344,-295 344,-312 V -559 L 0,-903 56,-960 792,-224 Z M 479,-650 Z"/>
		</symbol>

		<symbol id="format_align_center" viewBox="0 -960 720 720">
			<path d="m 0,-240 v -80 h 720 v 80 z m 160,-160 v -80 h 400 v 80 z M 0,-560 v -80 h 720 v 80 z m 160,-160 v -80 h 400 v 80 z M 0,-880 v -80 h 720 v 80 z"/>
		</symbol>

		<symbol id="format_align_justify" viewBox="0 -960 720 720">
			<path d="m 0,-240 v -80 h 720 v 80 z m 0,-160 v -80 h 720 v 80 z m 0,-160 v -80 h 720 v 80 z m 0,-160 v -80 h 720 v 80 z m 0,-160 v -80 h 720 v 80 z"/>
		</symbol>

		<symbol id="format_align_left" viewBox="0 -960 720 720">
			<path d="m 0,-240 v -80 h 720 v 80 z m 0,-160 v -80 h 480 v 80 z m 0,-160 v -80 h 720 v 80 z m 0,-160 v -80 h 480 v 80 z m 0,-160 v -80 h 720 v 80 z"/>
		</symbol>

		<symbol id="format_align_right" viewBox="0 -960 720 720">
			<path d="m 0,-880 v -80 h 720 v 80 z m 240,160 v -80 h 480 v 80 z M 0,-560 v -80 h 720 v 80 z m 240,160 v -80 h 480 v 80 z M 0,-240 v -80 h 720 v 80 z"/>
		</symbol>

		<symbol id="format_bold" viewBox="0 -960 416 560">
			<path d="m 0,-400 v -560 h 221 q 65,0 120,40 55,40 55,111 0,51 -23,78.5 -23,27.5 -43,39.5 25,11 55.5,41 30.5,30 30.5,90 0,89 -65,124.5 -65,35.5 -122,35.5 z m 121,-112 h 104 q 48,0 58.5,-24.5 Q 294,-561 294,-572 294,-583 283.5,-607.5 273,-632 222,-632 H 121 Z m 0,-228 h 93 q 33,0 48,-17 15,-17 15,-38 0,-24 -17,-39 -17,-15 -44,-15 h -95 z"/>
		</symbol>

		<symbol id="format_h1" viewBox="0 -960 560 400">
			<path d="m 0,-560 v -400 h 80 v 160 h 160 v -160 h 80 v 400 H 240 V -720 H 80 v 160 z m 480,0 v -320 h -80 v -80 h 160 v 400 z"/>
		</symbol>

		<symbol id="format_indent_decrease" viewBox="0 -960 720 720">
			<path d="m 0,-240 v -80 h 720 v 80 z m 320,-160 v -80 h 400 v 80 z m 0,-160 v -80 h 400 v 80 z m 0,-160 v -80 h 400 v 80 z M 0,-880 v -80 h 720 v 80 z M 160,-440 0,-600 160,-760 Z"/>
		</symbol>

		<symbol id="format_indent_increase" viewBox="0 -960 720 720">
			<path d="m 0,-240 v -80 h 720 v 80 z m 320,-160 v -80 h 400 v 80 z m 0,-160 v -80 h 400 v 80 z m 0,-160 v -80 h 400 v 80 z M 0,-880 v -80 h 720 v 80 z m 0,440 v -320 l 160,160 z"/>
		</symbol>

		<symbol id="format_ink_highlighter" viewBox="0 -960 801 880">
			<path d="m 0,-80 v -160 h 800 v 160 z m 504,-480 -104,-104 -160,160 103,104 z m -47,-160 103,103 160,-159 -104,-104 z m -84,-29 216,216 -189,190 q -24,24 -56.5,24 -32.5,0 -56.5,-24 l -27,23 H 60 l 126,-125 q -24,-24 -25,-57.5 -1,-33.5 23,-57.5 z m 0,0 187,-187 q 24,-24 56.5,-24 32.5,0 56.5,24 l 104,103 q 24,24 24,56.5 0,32.5 -24,56.5 l -188,187 z"/>
		</symbol>

		<symbol id="format_italic" viewBox="0 -960 520 560">
			<path d="M 0,-400 V -500 H 160 L 280,-860 H 120 v -100 h 400 v 100 H 380 l -120,360 h 140 v 100 z"/>
		</symbol>

		<symbol id="format_list_bulleted" viewBox="0 -960 720 640">
			<path d="m 240,-360 v -80 h 480 v 80 z m 0,-240 v -80 h 480 v 80 z m 0,-240 v -80 h 480 v 80 z M 80,-320 Q 47,-320 23.5,-343.5 0,-367 0,-400 0,-433 23.5,-456.5 47,-480 80,-480 q 33,0 56.5,23.5 23.5,23.5 23.5,56.5 0,33 -23.5,56.5 Q 113,-320 80,-320 Z m 0,-240 Q 47,-560 23.5,-583.5 0,-607 0,-640 0,-673 23.5,-696.5 47,-720 80,-720 q 33,0 56.5,23.5 23.5,23.5 23.5,56.5 0,33 -23.5,56.5 Q 113,-560 80,-560 Z m 0,-240 Q 47,-800 23.5,-823.5 0,-847 0,-880 0,-913 23.5,-936.5 47,-960 80,-960 q 33,0 56.5,23.5 23.5,23.5 23.5,56.5 0,33 -23.5,56.5 Q 113,-800 80,-800 Z"/>
		</symbol>

		<symbol id="format_list_numbered" viewBox="0 -960 720 800">
			<path d="m 0,-160 v -60 h 100 v -30 H 40 v -60 h 60 v -30 H 0 v -60 h 120 q 17,0 28.5,11.5 11.5,11.5 11.5,28.5 v 40 q 0,17 -11.5,28.5 -11.5,11.5 -28.5,11.5 17,0 28.5,11.5 11.5,11.5 11.5,28.5 v 40 q 0,17 -11.5,28.5 Q 137,-160 120,-160 Z M 0,-440 V -550 Q 0,-567 11.5,-578.5 23,-590 40,-590 h 60 v -30 H 0 v -60 h 120 q 17,0 28.5,11.5 11.5,11.5 11.5,28.5 v 70 q 0,17 -11.5,28.5 Q 137,-530 120,-530 H 60 v 30 h 100 v 60 z M 60,-720 V -900 H 0 v -60 h 120 v 240 z m 180,440 v -80 h 480 v 80 z m 0,-240 v -80 h 480 v 80 z m 0,-240 v -80 h 480 v 80 z"/>
		</symbol>

		<symbol id="format_quote" viewBox="0 -960 680 480">
			<path d="m 68,-480 92,-160 q -66,0 -113,-47 -47,-47 -47,-113 0,-66 47,-113 47,-47 113,-47 66,0 113,47 47,47 47,113 0,23 -5.5,42.5 Q 309,-738 298,-720 l -138,240 z m 360,0 92,-160 q -66,0 -113,-47 -47,-47 -47,-113 0,-66 47,-113 47,-47 113,-47 66,0 113,47 47,47 47,113 0,23 -5.5,42.5 Q 669,-738 658,-720 L 520,-480 Z M 160,-740 q 25,0 42.5,-17.5 Q 220,-775 220,-800 220,-825 202.5,-842.5 185,-860 160,-860 q -25,0 -42.5,17.5 -17.5,17.5 -17.5,42.5 0,25 17.5,42.5 17.5,17.5 42.5,17.5 z m 360,0 q 25,0 42.5,-17.5 Q 580,-775 580,-800 580,-825 562.5,-842.5 545,-860 520,-860 q -25,0 -42.5,17.5 -17.5,17.5 -17.5,42.5 0,25 17.5,42.5 17.5,17.5 42.5,17.5 z m 0,-60 z m -360,0 z"/>
		</symbol>

		<symbol id="format_strikethrough" viewBox="0 -960 800 640">
			<path d="m 0,-560 v -80 h 800 v 80 z M 340,-720 V -840 H 120 v -120 h 560 v 120 H 460 v 120 z m 0,400 v -160 h 120 v 160 z"/>
		</symbol>

		<symbol id="grid_view" viewBox="0 -960 720 720">
			<path d="m 0,-640 v -320 h 320 v 320 z m 0,400 v -320 h 320 v 320 z m 400,-400 v -320 h 320 v 320 z m 0,400 v -320 h 320 v 320 z M 80,-720 H 240 V -880 H 80 Z m 400,0 H 640 V -880 H 480 Z m 0,400 H 640 V -480 H 480 Z m -400,0 H 240 V -480 H 80 Z m 400,-400 z m 0,240 z m -240,0 z m 0,-240 z"/>
		</symbol>

		<symbol id="heart" viewBox="0 -960 800 734">
			<path d="m 400,-226 -58,-52 Q 241,-369 175,-435 109,-501 70,-553.5 31,-606 15.5,-650 0,-694 0,-740 q 0,-94 63,-157 63,-63 157,-63 52,0 99,22 47,22 81,62 34,-40 81,-62 47,-22 99,-22 94,0 157,63 63,63 63,157 0,46 -15.5,90 -15.5,44 -54.5,96.5 -39,52.5 -105,118.5 -66,66 -167,157 z m 0,-108 q 96,-86 158,-147.5 62,-61.5 98,-107 36,-45.5 50,-81 14,-35.5 14,-70.5 0,-60 -40,-100 -40,-40 -100,-40 -47,0 -87,26.5 -40,26.5 -55,67.5 h -76 q -15,-41 -55,-67.5 -40,-26.5 -87,-26.5 -60,0 -100,40 -40,40 -40,100 0,35 14,70.5 14,35.5 50,81 36,45.5 98,107 62,61.5 158,147.5 z m 0,-273 z"/>
		</symbol>

		<symbol id="heart_filled" viewBox="0 -960 960 880">
			<path d="m 480,-80 -69.6,-62.34332 Q 289.2,-251.44414 210,-330.57221 130.8,-409.70027 84,-472.64305 37.2,-535.58583 18.6,-588.33787 0,-641.08992 0,-696.23978 0,-808.93733 75.6,-884.46866 151.2,-960 264,-960 q 62.4,0 118.8,26.37602 56.4,26.37602 97.2,74.33243 40.8,-47.95641 97.2,-74.33243 Q 633.6,-960 696,-960 q 112.8,0 188.4,75.53134 75.6,75.53133 75.6,188.22888 0,55.14986 -18.6,107.90191 -18.6,52.75204 -65.4,115.69482 -46.8,62.94278 -126,142.07084 -79.2,79.12807 -200.4,188.22889 z"/>
		</symbol>

		<symbol id="help" viewBox="0 -960 800 800">
			<path d="m 398,-320 q 21,0 35.5,-14.5 Q 448,-349 448,-370 448,-391 433.5,-405.5 419,-420 398,-420 q -21,0 -35.5,14.5 -14.5,14.5 -14.5,35.5 0,21 14.5,35.5 14.5,14.5 35.5,14.5 z m -36,-154 h 74 q 0,-33 7.5,-52 7.5,-19 42.5,-52 26,-26 41,-49.5 15,-23.5 15,-56.5 0,-56 -41,-86 -41,-30 -97,-30 -57,0 -92.5,30 -35.5,30 -49.5,72 l 66,26 q 5,-18 22.5,-39 17.5,-21 53.5,-21 32,0 48,17.5 16,17.5 16,38.5 0,20 -12,37.5 -12,17.5 -30,32.5 -44,39 -54,59 -10,20 -10,73 z m 38,314 q -83,0 -156,-31.5 Q 171,-223 117,-277 63,-331 31.5,-404 0,-477 0,-560 0,-643 31.5,-716 63,-789 117,-843 q 54,-54 127,-85.5 73,-31.5 156,-31.5 83,0 156,31.5 73,31.5 127,85.5 54,54 85.5,127 31.5,73 31.5,156 0,83 -31.5,156 -31.5,73 -85.5,127 -54,54 -127,85.5 -73,31.5 -156,31.5 z m 0,-80 q 134,0 227,-93 93,-93 93,-227 0,-134 -93,-227 -93,-93 -227,-93 -134,0 -227,93 -93,93 -93,227 0,134 93,227 93,93 227,93 z m 0,-320 z"/>
		</symbol>

		<symbol id="history" viewBox="0 -960 720 720">
			<path d="M 360,-240 Q 222,-240 119.5,-331.5 17,-423 2,-560 h 82 q 14,104 92.5,172 78.5,68 183.5,68 117,0 198.5,-81.5 Q 640,-483 640,-600 640,-717 558.5,-798.5 477,-880 360,-880 q -69,0 -129,32 -60,32 -101,88 h 110 v 80 H 0 v -240 h 80 v 94 q 51,-64 124.5,-99 73.5,-35 155.5,-35 75,0 140.5,28.5 65.5,28.5 114,77 48.5,48.5 77,114 28.5,65.5 28.5,140.5 0,75 -28.5,140.5 -28.5,65.5 -77,114 -48.5,48.5 -114,77 Q 435,-240 360,-240 Z M 472,-432 320,-584 v -216 h 80 v 184 l 128,128 z"/>
		</symbol>

		<symbol id="home" viewBox="0 -960 640 720">
			<path d="m 80,-320 h 120 v -240 h 240 v 240 H 560 V -680 L 320,-860 80,-680 Z m -80,80 v -480 l 320,-240 320,240 v 480 H 360 v -240 h -80 v 240 z m 320,-350 z"/>
		</symbol>

		<symbol id="image" viewBox="0 -960 720 720">
			<path d="M 80,-240 Q 47,-240 23.5,-263.5 0,-287 0,-320 V -880 Q 0,-913 23.5,-936.5 47,-960 80,-960 h 560 q 33,0 56.5,23.5 23.5,23.5 23.5,56.5 v 560 q 0,33 -23.5,56.5 Q 673,-240 640,-240 Z m 0,-80 H 640 V -880 H 80 Z m 40,-80 H 600 L 450,-600 330,-440 240,-560 Z m -40,80 v -560 z"/>
		</symbol>

		<symbol id="info" viewBox="0 -960 800 800">
			<path d="m 360,-360 h 80 v -240 h -80 z m 40,-320 q 17,0 28.5,-11.5 Q 440,-703 440,-720 440,-737 428.5,-748.5 417,-760 400,-760 q -17,0 -28.5,11.5 -11.5,11.5 -11.5,28.5 0,17 11.5,28.5 11.5,11.5 28.5,11.5 z m 0,520 q -83,0 -156,-31.5 Q 171,-223 117,-277 63,-331 31.5,-404 0,-477 0,-560 0,-643 31.5,-716 63,-789 117,-843 q 54,-54 127,-85.5 73,-31.5 156,-31.5 83,0 156,31.5 73,31.5 127,85.5 54,54 85.5,127 31.5,73 31.5,156 0,83 -31.5,156 -31.5,73 -85.5,127 -54,54 -127,85.5 -73,31.5 -156,31.5 z m 0,-80 q 134,0 227,-93 93,-93 93,-227 0,-134 -93,-227 -93,-93 -227,-93 -134,0 -227,93 -93,93 -93,227 0,134 93,227 93,93 227,93 z m 0,-320 z"/>
		</symbol>

		<symbol id="keep" viewBox="0 -960 480 800">
			<path d="m 400,-600 80,80 v 80 H 280 v 240 l -40,40 -40,-40 V -440 H 0 v -80 l 80,-80 V -880 H 40 v -80 h 400 v 80 h -40 z m -286,80 h 252 l -46,-46 V -880 H 160 v 314 z m 126,0 z"/>
		</symbol>

		<symbol id="keep_filled" viewBox="0 -960 480 800">
			<path d="m 400,-600 80,80 v 80 H 280 v 240 l -40,40 -40,-40 V -440 H 0 v -80 l 80,-80 V -880 H 40 v -80 h 400 v 80 h -40 z"/>
		</symbol>

		<symbol id="live_tv" viewBox="0 -960 800 720">
			<path d="M 300,-460 580,-640 300,-820 Z m -60,220 v -80 H 80 Q 47,-320 23.5,-343.5 0,-367 0,-400 V -880 Q 0,-913 23.5,-936.5 47,-960 80,-960 h 640 q 33,0 56.5,23.5 23.5,23.5 23.5,56.5 v 480 q 0,33 -23.5,56.5 Q 753,-320 720,-320 H 560 v 80 z M 80,-400 H 720 V -880 H 80 Z m 0,0 v -480 z"/>
		</symbol>

		<symbol id="manufacturing" viewBox="0 -960 838 840">
			<path d="m 154,-560 -12,-60 q -12,-5 -22.5,-10.5 Q 109,-636 98,-644 l -58,18 -40,-68 46,-40 q -2,-13 -2,-26 0,-13 2,-26 l -46,-40 40,-68 58,18 q 11,-8 21.5,-13.5 Q 130,-895 142,-900 l 12,-60 h 80 l 12,60 q 12,5 22.5,10.5 10.5,5.5 21.5,13.5 l 58,-18 40,68 -46,40 q 2,13 2,26 0,13 -2,26 l 46,40 -40,68 -58,-18 q -11,8 -21.5,13.5 Q 258,-625 246,-620 l -12,60 z m 40,-120 q 33,0 56.5,-23.5 Q 274,-727 274,-760 274,-793 250.5,-816.5 227,-840 194,-840 q -33,0 -56.5,23.5 -23.5,23.5 -23.5,56.5 0,33 23.5,56.5 23.5,23.5 56.5,23.5 z m 318,560 -18,-84 q -17,-6 -31.5,-14.5 Q 448,-227 434,-238 l -80,26 -56,-96 64,-56 q -2,-18 -2,-36 0,-18 2,-36 l -64,-56 56,-96 80,26 q 14,-11 28.5,-19.5 Q 477,-590 494,-596 l 18,-84 h 112 l 18,84 q 17,6 31.5,14.5 14.5,8.5 28.5,19.5 l 80,-26 56,96 -64,56 q 2,18 2,36 0,18 -2,36 l 64,56 -56,96 -80,-26 q -14,11 -28.5,19.5 Q 659,-210 642,-204 l -18,84 z m 56,-160 q 50,0 85,-35 35,-35 35,-85 0,-50 -35,-85 -35,-35 -85,-35 -50,0 -85,35 -35,35 -35,85 0,50 35,85 35,35 85,35 z"/>
		</symbol>

		<symbol id="memory" viewBox="0 -960 720 720">
			<path d="m 240,-480 v -240 h 240 v 240 z m 80,-80 h 80 v -80 h -80 z m -80,320 v -80 h -80 q -33,0 -56.5,-23.5 Q 80,-367 80,-400 v -80 H 0 v -80 h 80 v -80 H 0 v -80 h 80 v -80 q 0,-33 23.5,-56.5 Q 127,-880 160,-880 h 80 v -80 h 80 v 80 h 80 v -80 h 80 v 80 h 80 q 33,0 56.5,23.5 23.5,23.5 23.5,56.5 v 80 h 80 v 80 h -80 v 80 h 80 v 80 h -80 v 80 q 0,33 -23.5,56.5 Q 593,-320 560,-320 h -80 v 80 h -80 v -80 h -80 v 80 z M 560,-400 V -800 H 160 v 400 z M 360,-600 Z"/>
		</symbol>

		<symbol id="menu" viewBox="0 -960 720 480">
			<path d="m 0,-480 v -80 h 720 v 80 z m 0,-200 v -80 h 720 v 80 z m 0,-200 v -80 h 720 v 80 z"/>
		</symbol>

		<symbol id="menu_open" viewBox="0 -960 720 480">
			<path d="m 0,-480 v -80 h 520 v 80 z m 664,-40 -200,-200 200,-200 56,56 -144,144 144,144 z M 0,-680 v -80 h 400 v 80 z m 0,-200 v -80 h 520 v 80 z"/>
		</symbol>

		<symbol id="mop" viewBox="0 -960 837 880">
			<path d="m 377.94117,-560 h 80 v -280 q 0,-17 -11.5,-28.5 -11.5,-11.5 -28.5,-11.5 -17,0 -28.5,11.5 -11.5,11.5 -11.5,28.5 z m -240,160 h 560 v -80 h -560 z m -57.999996,240 h 97.999996 v -80 q 0,-17 11.5,-28.5 11.5,-11.5 28.5,-11.5 17,0 28.5,11.5 11.5,11.5 11.5,28.5 v 80 h 120 v -80 q 0,-17 11.5,-28.5 11.5,-11.5 28.5,-11.5 17,0 28.5,11.5 11.5,11.5 11.5,28.5 v 80 h 120 v -80 q 0,-17 11.5,-28.5 11.5,-11.5 28.5,-11.5 17,0 28.5,11.5 11.5,11.5 11.5,28.5 v 80 h 98 l -40,-160 h -596 z M 755.94117,-80 H 79.941174 q -39,0 -63,-31 -24.0000004,-31 -14.0000004,-69 L 57.941174,-400 v -80 q 0,-33 23.5,-56.5 23.499996,-23.5 56.499996,-23.5 h 160 v -280 q 0,-50 35,-85 35,-35 85,-35 50,0 85,35 35,35 35,85 v 280 h 160 q 33,0 56.5,23.5 23.5,23.5 23.5,56.5 v 80 l 55,220 q 13,38 -11.5,69 -24.5,31 -65.5,31 z m -58,-400 h -560 z m -240,-80 h -80 z"/>
		</symbol>

		<symbol id="move_down" viewBox="0 -960 840 680">
			<path d="m 240,-280 -56,-56 63,-66 Q 141,-414 70.5,-493.5 0,-573 0,-680 0,-797 81.5,-878.5 163,-960 280,-960 h 120 v 80 H 280 q -83,0 -141.5,58.5 Q 80,-763 80,-680 q 0,72 46,127 46,55 117,69 l -59,-59 56,-57 160,160 z m 240,-40 v -280 h 360 v 280 z m 0,-360 v -280 h 360 v 280 z m 80,-80 H 760 V -880 H 560 Z"/>
		</symbol>

		<symbol id="note_stack" viewBox="0 -960 800 800">
			<path d="m 200.44,-239.56 v -441 q 0,-33 24,-56 24,-23 57,-23 h 439 q 33,0 56.5,23.5 23.5,23.5 23.5,56.5 v 320 l -200,200 h -320 q -33,0 -56.5,-23.5 -23.5,-23.5 -23.5,-56.5 z m -198.9999976,-550 q -6,-33 12.9999996,-59.5 19,-26.5 52,-32.5 l 433.999998,-77 q 33,-6 59.5,13 26.5,19 32.5,52 l 10,54 h -82 l -7,-40 -432.999998,77 39.999998,226 v 279 q -16,-9 -27.499998,-24 -11.5,-15 -14.5,-34 z M 280.44,-679.56 v 440 h 280 v -160 h 160 v -280 z m 220,220 z"/>
		</symbol>

		<symbol id="open_in_new" viewBox="0 -960 720 720">
			<path d="M 80,-240 Q 47,-240 23.5,-263.5 0,-287 0,-320 V -880 Q 0,-913 23.5,-936.5 47,-960 80,-960 h 280 v 80 H 80 v 560 h 560 v -280 h 80 v 280 q 0,33 -23.5,56.5 Q 673,-240 640,-240 Z m 188,-212 -56,-56 372,-372 H 440 v -80 h 280 v 280 h -80 v -144 z"/>
		</symbol>

		<symbol id="pause_circle" viewBox="0 -960 800 800">
			<path d="m 280,-400 h 80 v -320 h -80 z m 160,0 h 80 v -320 h -80 z m -40,240 q -83,0 -156,-31.5 Q 171,-223 117,-277 63,-331 31.5,-404 0,-477 0,-560 0,-643 31.5,-716 63,-789 117,-843 q 54,-54 127,-85.5 73,-31.5 156,-31.5 83,0 156,31.5 73,31.5 127,85.5 54,54 85.5,127 31.5,73 31.5,156 0,83 -31.5,156 -31.5,73 -85.5,127 -54,54 -127,85.5 -73,31.5 -156,31.5 z m 0,-80 q 134,0 227,-93 93,-93 93,-227 0,-134 -93,-227 -93,-93 -227,-93 -134,0 -227,93 -93,93 -93,227 0,134 93,227 93,93 227,93 z m 0,-320 z"/>
		</symbol>

		<symbol id="play_circle" viewBox="0 -960 800 800">
			<path d="M 300,-380 580,-560 300,-740 Z m 100,220 q -83,0 -156,-31.5 Q 171,-223 117,-277 63,-331 31.5,-404 0,-477 0,-560 0,-643 31.5,-716 63,-789 117,-843 q 54,-54 127,-85.5 73,-31.5 156,-31.5 83,0 156,31.5 73,31.5 127,85.5 54,54 85.5,127 31.5,73 31.5,156 0,83 -31.5,156 -31.5,73 -85.5,127 -54,54 -127,85.5 -73,31.5 -156,31.5 z m 0,-80 q 134,0 227,-93 93,-93 93,-227 0,-134 -93,-227 -93,-93 -227,-93 -134,0 -227,93 -93,93 -93,227 0,134 93,227 93,93 227,93 z m 0,-320 z"/>
		</symbol>

		<symbol id="post_add" viewBox="0 -960 720 720">
			<path d="M 80,-240 Q 47,-240 23.5,-263.5 0,-287 0,-320 V -880 Q 0,-913 23.5,-936.5 47,-960 80,-960 h 360 v 80 H 80 v 560 h 560 v -360 h 80 v 360 q 0,33 -23.5,56.5 Q 673,-240 640,-240 Z m 120,-160 v -80 h 320 v 80 z m 0,-120 v -80 h 320 v 80 z m 0,-120 v -80 h 320 v 80 z m 360,-80 v -80 h -80 v -80 h 80 v -80 h 80 v 80 h 80 v 80 h -80 v 80 z"/>
		</symbol>

		<symbol id="preliminary" viewBox="0 -960 800 800">
			<path d="m 280,-360 q 17,0 28.5,-11.5 Q 320,-383 320,-400 320,-417 308.5,-428.5 297,-440 280,-440 q -17,0 -28.5,11.5 -11.5,11.5 -11.5,28.5 0,17 11.5,28.5 11.5,11.5 28.5,11.5 z m 120,0 q 17,0 28.5,-11.5 Q 440,-383 440,-400 440,-417 428.5,-428.5 417,-440 400,-440 q -17,0 -28.5,11.5 -11.5,11.5 -11.5,28.5 0,17 11.5,28.5 11.5,11.5 28.5,11.5 z m 120,0 q 17,0 28.5,-11.5 Q 560,-383 560,-400 560,-417 548.5,-428.5 537,-440 520,-440 q -17,0 -28.5,11.5 -11.5,11.5 -11.5,28.5 0,17 11.5,28.5 11.5,11.5 28.5,11.5 z m -162,-120 225,-226 -56,-57 -170,170 -85,-85 -56,56 z m 42,320 q -83,0 -156,-31.5 Q 171,-223 117,-277 63,-331 31.5,-404 0,-477 0,-560 0,-643 31.5,-716 63,-789 117,-843 q 54,-54 127,-85.5 73,-31.5 156,-31.5 83,0 156,31.5 73,31.5 127,85.5 54,54 85.5,127 31.5,73 31.5,156 0,83 -31.5,156 -31.5,73 -85.5,127 -54,54 -127,85.5 -73,31.5 -156,31.5 z m 0,-80 q 134,0 227,-93 93,-93 93,-227 0,-134 -93,-227 -93,-93 -227,-93 -134,0 -227,93 -93,93 -93,227 0,134 93,227 93,93 227,93 z m 0,-320 z"/>
		</symbol>

		<symbol id="preliminary_filled" viewBox="0 -960 800 800">
			<path d="m 280,-360 q 17,0 28.5,-11.5 Q 320,-383 320,-400 320,-417 308.5,-428.5 297,-440 280,-440 q -17,0 -28.5,11.5 -11.5,11.5 -11.5,28.5 0,17 11.5,28.5 11.5,11.5 28.5,11.5 z m 120,0 q 17,0 28.5,-11.5 Q 440,-383 440,-400 440,-417 428.5,-428.5 417,-440 400,-440 q -17,0 -28.5,11.5 -11.5,11.5 -11.5,28.5 0,17 11.5,28.5 11.5,11.5 28.5,11.5 z m 120,0 q 17,0 28.5,-11.5 Q 560,-383 560,-400 560,-417 548.5,-428.5 537,-440 520,-440 q -17,0 -28.5,11.5 -11.5,11.5 -11.5,28.5 0,17 11.5,28.5 11.5,11.5 28.5,11.5 z m -162,-120 225,-226 -56,-57 -170,170 -85,-85 -56,56 z m 42,320 q -83,0 -156,-31.5 Q 171,-223 117,-277 63,-331 31.5,-404 0,-477 0,-560 0,-643 31.5,-716 63,-789 117,-843 q 54,-54 127,-85.5 73,-31.5 156,-31.5 83,0 156,31.5 73,31.5 127,85.5 54,54 85.5,127 31.5,73 31.5,156 0,83 -31.5,156 -31.5,73 -85.5,127 -54,54 -127,85.5 -73,31.5 -156,31.5 z"/>
		</symbol>

		<symbol id="published_with_changes" viewBox="0 -960 800 796">
			<path d="m 360,-164 q -76,-8 -141.5,-41.5 -65.5,-33.5 -114,-87 Q 56,-346 28,-415 0,-484 0,-562 0,-653 36.5,-730 73,-807 136,-862 H 40 v -80 h 240 v 240 h -80 v -109 q -55,44 -87.5,108.5 Q 80,-638 80,-562 80,-439 160.5,-349.5 241,-260 360,-245 Z m -17,-214 -169,-170 56,-56 113,113 227,-227 56,57 z m 177,196 v -240 h 80 v 109 q 55,-45 87.5,-109 32.5,-64 32.5,-140 0,-123 -80.5,-212.5 Q 559,-864 440,-879 v -81 q 152,15 256,128 104,113 104,270 0,91 -36.5,168 -36.5,77 -99.5,132 h 96 v 80 z"/>
		</symbol>

		<symbol id="quiz" viewBox="0 -960 800 800">
			<path d="m 480,-440 q 17,0 29.5,-12.5 Q 522,-465 522,-482 522,-499 509.5,-511.5 497,-524 480,-524 q -17,0 -29.5,12.5 -12.5,12.5 -12.5,29.5 0,17 12.5,29.5 12.5,12.5 29.5,12.5 z m -30,-128 h 60 q 0,-29 6,-42.5 6,-13.5 28,-35.5 30,-30 40,-48.5 10,-18.5 10,-43.5 0,-45 -31.5,-73.5 Q 531,-840 480,-840 q -41,0 -71.5,23 -30.5,23 -42.5,61 l 54,22 q 9,-25 24.5,-37.5 15.5,-12.5 35.5,-12.5 24,0 39,13.5 15,13.5 15,36.5 0,14 -8,26.5 -8,12.5 -28,31.5 -33,29 -40.5,45.5 -7.5,16.5 -7.5,62.5 z m -210,248 q -33,0 -56.5,-23.5 Q 160,-367 160,-400 v -480 q 0,-33 23.5,-56.5 Q 207,-960 240,-960 h 480 q 33,0 56.5,23.5 23.5,23.5 23.5,56.5 v 480 q 0,33 -23.5,56.5 Q 753,-320 720,-320 Z m 0,-80 H 720 V -880 H 240 Z M 80,-160 Q 47,-160 23.5,-183.5 0,-207 0,-240 v -560 h 80 v 560 h 560 v 80 z m 160,-720 v 480 z"/>
		</symbol>

		<symbol id="redo" viewBox="0 -960 640 600">
			<path d="M 236,-360 Q 139,-360 69.5,-423 0,-486 0,-580 0,-674 69.5,-737 139,-800 236,-800 h 252 l -104,-104 56,-56 200,200 -200,200 -56,-56 104,-104 H 236 q -63,0 -109.5,40 -46.5,40 -46.5,100 0,60 46.5,100 46.5,40 109.5,40 h 284 v 80 z"/>
		</symbol>

		<symbol id="refresh" viewBox="0 -960 640 640">
			<path d="m 320,-320 q -134,0 -227,-93 -93,-93 -93,-227 0,-134 93,-227 93,-93 227,-93 69,0 132,28.5 63,28.5 108,81.5 v -110 h 80 v 280 H 360 v -80 h 168 q -32,-56 -87.5,-88 -55.5,-32 -120.5,-32 -100,0 -170,70 -70,70 -70,170 0,100 70,170 70,70 170,70 77,0 139,-44 62,-44 87,-116 h 84 q -28,106 -114,173 -86,67 -196,67 z"/>
		</symbol>

		<symbol id="remove" viewBox="0 -960 560 80">
			<path d="m 0,-880 v -80 h 560 v 80 z"/>
		</symbol>

		<symbol id="save" viewBox="0 -960 720 720">
			<path d="m 720,-800 v 480 q 0,33 -23.5,56.5 Q 673,-240 640,-240 H 80 Q 47,-240 23.5,-263.5 0,-287 0,-320 V -880 Q 0,-913 23.5,-936.5 47,-960 80,-960 h 480 z m -80,34 -114,-114 H 80 v 560 h 560 z m -280,406 q 50,0 85,-35 35,-35 35,-85 0,-50 -35,-85 -35,-35 -85,-35 -50,0 -85,35 -35,35 -35,85 0,50 35,85 35,35 85,35 z M 120,-680 H 480 V -840 H 120 Z m -40,-86 v 446 -560 z"/>
		</symbol>

		<symbol id="schedule" viewBox="0 -960 800 800">
			<path d="m 532,-372 56,-56 -148,-148 v -184 h -80 v 216 z m -132,212 q -83,0 -156,-31.5 Q 171,-223 117,-277 63,-331 31.5,-404 0,-477 0,-560 0,-643 31.5,-716 63,-789 117,-843 q 54,-54 127,-85.5 73,-31.5 156,-31.5 83,0 156,31.5 73,31.5 127,85.5 54,54 85.5,127 31.5,73 31.5,156 0,83 -31.5,156 -31.5,73 -85.5,127 -54,54 -127,85.5 -73,31.5 -156,31.5 z m 0,-400 z m 0,320 q 133,0 226.5,-93.5 Q 720,-427 720,-560 720,-693 626.5,-786.5 533,-880 400,-880 267,-880 173.5,-786.5 80,-693 80,-560 80,-427 173.5,-333.5 267,-240 400,-240 Z"/>
		</symbol>

		<symbol id="search" viewBox="0 -960 720 720">
			<path d="M 664,-240 412,-492 q -30,24 -69,38 -39,14 -83,14 -109,0 -184.5,-75.5 Q 0,-591 0,-700 0,-809 75.5,-884.5 151,-960 260,-960 q 109,0 184.5,75.5 75.5,75.5 75.5,184.5 0,44 -14,83 -14,39 -38,69 l 252,252 z M 260,-520 q 75,0 127.5,-52.5 Q 440,-625 440,-700 440,-775 387.5,-827.5 335,-880 260,-880 185,-880 132.5,-827.5 80,-775 80,-700 q 0,75 52.5,127.5 Q 185,-520 260,-520 Z"/>
		</symbol>

		<symbol id="settings" viewBox="0 -960 804.00002 800">
			<path d="m 292,-160 -16,-128 q -13,-5 -24.5,-12 -11.5,-7 -22.5,-15 L 110,-265 0,-455 103,-533 q -1,-7 -1,-13.5 v -27 q 0,-6.5 1,-13.5 l -103,-78 110,-190 119,50 q 11,-8 23,-15 12,-7 24,-12 l 16,-128 h 220 l 16,128 q 13,5 24.5,12 11.5,7 22.5,15 l 119,-50 110,190 -103,78 q 1,7 1,13.5 v 27 q 0,6.5 -2,13.5 l 103,78 -110,190 -118,-50 q -11,8 -23,15 -12,7 -24,12 l -16,128 z m 70,-80 h 79 l 14,-106 q 31,-8 57.5,-23.5 Q 539,-385 561,-407 l 99,41 39,-68 -86,-65 q 5,-14 7,-29.5 2,-15.5 2,-31.5 0,-16 -2,-31.5 -2,-15.5 -7,-29.5 l 86,-65 -39,-68 -99,42 Q 539,-735 512.5,-750.5 486,-766 455,-774 l -13,-106 h -79 l -14,106 q -31,8 -57.5,23.5 Q 265,-735 243,-713 l -99,-41 -39,68 86,64 q -5,15 -7,30 -2,15 -2,32 0,16 2,31 2,15 7,30 l -86,65 39,68 99,-42 q 22,23 48.5,38.5 26.5,15.5 57.5,23.5 z m 42,-180 q 58,0 99,-41 41,-41 41,-99 0,-58 -41,-99 -41,-41 -99,-41 -59,0 -99.5,41 -40.5,41 -40.5,99 0,58 40.5,99 40.5,41 99.5,41 z m -2,-140 z"/>
		</symbol>

		<symbol id="stat_minus_2" viewBox="0 -960 480 536">
			<path d="M 240,-424 0,-664 l 56,-56 184,183 184,-183 56,56 z m 0,-240 -240,-240 56,-56 184,183 184,-183 56,56 z"/>
		</symbol>

		<symbol id="subscript" viewBox="0 -960 685 640">
			<path d="m 525,-320 v -80 q 0,-17 11.5,-28.5 Q 548,-440 565,-440 h 80 v -40 H 525 v -40 h 120 q 17,0 28.5,11.5 11.5,11.5 11.5,28.5 v 40 q 0,17 -11.5,28.5 Q 662,-400 645,-400 h -80 v 40 h 120 v 40 z M 0,-400 185,-691 13,-960 h 106 l 124,200 h 4 l 123,-200 h 107 l -173,269 186,291 H 383 L 247,-617 h -4 l -136,217 z"/>
		</symbol>

		<symbol id="superscript" viewBox="0 -960 685 640">
			<path d="m 525,-760 v -80 q 0,-17 11.5,-28.5 Q 548,-880 565,-880 h 80 v -40 H 525 v -40 h 120 q 17,0 28.5,11.5 11.5,11.5 11.5,28.5 v 40 q 0,17 -11.5,28.5 Q 662,-840 645,-840 h -80 v 40 h 120 v 40 z M 0,-320 185,-611 13,-880 h 106 l 124,200 h 4 l 123,-200 h 107 l -173,269 186,291 H 383 L 247,-537 h -4 l -136,217 z"/>
		</symbol>

		<symbol id="system_update_alt" viewBox="0 -960 800 640">
			<path d="M 80,-320 Q 47,-320 23.5,-343.5 0,-367 0,-400 V -880 Q 0,-913 23.5,-936.5 47,-960 80,-960 h 200 v 80 H 80 v 480 H 720 V -880 H 520 v -80 h 200 q 33,0 56.5,23.5 23.5,23.5 23.5,56.5 v 480 q 0,33 -23.5,56.5 Q 753,-320 720,-320 Z m 320,-184 -200,-200 56,-56 104,104 v -304 h 80 v 304 l 104,-104 56,56 z"/>
		</symbol>

		<symbol id="table" viewBox="0 -960 720 720">
			<path d="M 0,-320 V -880 Q 0,-913 23.5,-936.5 47,-960 80,-960 h 560 q 33,0 56.5,23.5 23.5,23.5 23.5,56.5 v 560 q 0,33 -23.5,56.5 Q 673,-240 640,-240 H 80 Q 47,-240 23.5,-263.5 0,-287 0,-320 Z M 80,-720 H 640 V -880 H 80 Z m 213,200 H 427 V -640 H 293 Z m 0,200 H 427 V -440 H 293 Z M 80,-520 H 213 V -640 H 80 Z m 427,0 H 640 V -640 H 507 Z M 80,-320 H 213 V -440 H 80 Z m 427,0 H 640 V -440 H 507 Z"/>
		</symbol>

		<symbol id="task_alt" viewBox="0 -960 800 800">
			<path d="m 400,-160 q -83,0 -156,-31.5 Q 171,-223 117,-277 63,-331 31.5,-404 0,-477 0,-560 0,-643 31.5,-716 63,-789 117,-843 q 54,-54 127,-85.5 73,-31.5 156,-31.5 65,0 123,19 58,19 107,53 l -58,59 q -38,-24 -81,-37.5 -43,-13.5 -91,-13.5 -133,0 -226.5,93.5 Q 80,-693 80,-560 q 0,133 93.5,226.5 93.5,93.5 226.5,93.5 133,0 226.5,-93.5 Q 720,-427 720,-560 q 0,-18 -2,-36 -2,-18 -6,-35 l 65,-65 q 11,32 17,66 6,34 6,70 0,83 -31.5,156 -31.5,73 -85.5,127 -54,54 -127,85.5 -73,31.5 -156,31.5 z m -56,-216 -170,-170 56,-56 114,114 400,-401 56,56 z"/>
		</symbol>

		<symbol id="timer" viewBox="0 -960 720 840">
			<path d="m 240,-880 v -80 h 240 v 80 z m 80,440 h 80 v -240 h -80 z m 40,320 q -74,0 -139.5,-28.5 Q 155,-177 106,-226 57,-275 28.5,-340.5 0,-406 0,-480 0,-554 28.5,-619.5 57,-685 106,-734 155,-783 220.5,-811.5 286,-840 360,-840 q 62,0 119,20 57,20 107,58 l 56,-56 56,56 -56,56 q 38,50 58,107 20,57 20,119 0,74 -28.5,139.5 Q 663,-275 614,-226 565,-177 499.5,-148.5 434,-120 360,-120 Z m 0,-80 q 116,0 198,-82 82,-82 82,-198 0,-116 -82,-198 -82,-82 -198,-82 -116,0 -198,82 -82,82 -82,198 0,116 82,198 82,82 198,82 z m 0,-280 z"/>
		</symbol>

		<symbol id="toc" viewBox="0 -960 720 400">
			<path d="m 0,-560 v -80 h 560 v 80 z m 0,-160 v -80 h 560 v 80 z m 0,-160 v -80 h 560 v 80 z m 680,320 q -17,0 -28.5,-11.5 Q 640,-583 640,-600 q 0,-17 11.5,-28.5 11.5,-11.5 28.5,-11.5 17,0 28.5,11.5 11.5,11.5 11.5,28.5 0,17 -11.5,28.5 Q 697,-560 680,-560 Z m 0,-160 q -17,0 -28.5,-11.5 Q 640,-743 640,-760 q 0,-17 11.5,-28.5 11.5,-11.5 28.5,-11.5 17,0 28.5,11.5 11.5,11.5 11.5,28.5 0,17 -11.5,28.5 Q 697,-720 680,-720 Z m 0,-160 q -17,0 -28.5,-11.5 Q 640,-903 640,-920 q 0,-17 11.5,-28.5 11.5,-11.5 28.5,-11.5 17,0 28.5,11.5 11.5,11.5 11.5,28.5 0,17 -11.5,28.5 Q 697,-880 680,-880 Z"/>
		</symbol>

		<symbol id="troubleshoot" viewBox="0 -960 800 760">
			<path d="M 744,-200 556,-388 q -41,32 -90.5,50 -49.5,18 -105.5,18 -90,0 -162.5,-44 Q 125,-408 83,-480 h 98 q 34,37 79.5,58.5 45.5,21.5 99.5,21.5 100,0 170,-70 70,-70 70,-170 0,-100 -70,-170 -70,-70 -170,-70 -94,0 -162.5,63.5 Q 129,-753 121,-660 H 41 Q 49,-787 140.5,-873.5 232,-960 360,-960 q 134,0 227,93 93,93 93,227 0,56 -18,105.5 -18,49.5 -50,90.5 l 188,188 z M 317,-480 254,-688 202,-540 H 0 v -60 h 160 l 66,-190 h 60 l 61,204 43,-134 h 60 l 60,120 h 30 v 60 h -67 l -47,-94 -50,154 z"/>
		</symbol>

		<symbol id="turn_left" viewBox="0 -960 560 560">
			<path d="M 480,-400 V -760 H 152 l 64,64 -56,56 -160,-160 160,-160 56,56 -64,64 h 328 q 33,0 56.5,23.5 23.5,23.5 23.5,56.5 v 360 z"/>
		</symbol>

		<symbol id="undo" viewBox="0 -960 640 600">
			<path d="m 120,-360 v -80 h 284 q 63,0 109.5,-40 46.5,-40 46.5,-100 0,-60 -46.5,-100 Q 467,-720 404,-720 H 152 l 104,104 -56,56 -200,-200 200,-200 56,56 -104,104 h 252 q 97,0 166.5,63 69.5,63 69.5,157 0,94 -69.5,157 -69.5,63 -166.5,63 z"/>
		</symbol>

	</defs>

</svg>
