<?xml version="1.0" encoding="UTF-8" standalone="no"?>
<!-- Created with Inkscape (http://www.inkscape.org/) -->

<svg
   width="152mm"
   height="39mm"
   viewBox="0 0 152 39"
   version="1.1"
   id="svg1262"
   inkscape:version="1.2 (dc2aedaf03, 2022-05-15)"
   sodipodi:docname="logo.svg"
   xmlns:inkscape="http://www.inkscape.org/namespaces/inkscape"
   xmlns:sodipodi="http://sodipodi.sourceforge.net/DTD/sodipodi-0.dtd"
   xmlns="http://www.w3.org/2000/svg"
   xmlns:svg="http://www.w3.org/2000/svg">
  <sodipodi:namedview
     id="namedview1264"
     pagecolor="#ffffff"
     bordercolor="#666666"
     borderopacity="1.0"
     inkscape:pageshadow="2"
     inkscape:pageopacity="0.0"
     inkscape:pagecheckerboard="0"
     inkscape:document-units="mm"
     showgrid="false"
     inkscape:zoom="0.82394606"
     inkscape:cx="233.02496"
     inkscape:cy="10.316209"
     inkscape:window-width="1920"
     inkscape:window-height="991"
     inkscape:window-x="-9"
     inkscape:window-y="-9"
     inkscape:window-maximized="1"
     inkscape:current-layer="layer2"
     inkscape:showpageshadow="2"
     inkscape:deskcolor="#d1d1d1" />
  <defs
     id="defs1259" />
  <g
     inkscape:label="greenbg"
     inkscape:groupmode="layer"
     id="layer1"
     sodipodi:insensitive="true"
     style="display:none">
    <rect
       style="fill:#004a66;fill-rule:evenodd;stroke-width:0.919246;stroke-linecap:round;stroke-linejoin:round;paint-order:fill markers stroke"
       id="rect1811"
       width="152"
       height="39"
       x="0"
       y="0"
       ry="0" />
  </g>
  <g
     inkscape:groupmode="layer"
     id="layer4"
     inkscape:label="wolf"
     sodipodi:insensitive="true"
     style="display:inline">
    <path
       id="path22769"
       style="fill:#ffffff;fill-opacity:1;stroke:none;stroke-width:0.264079px;stroke-linecap:butt;stroke-linejoin:miter;stroke-opacity:1"
       d="M 31.262633,5 25.330187,8.3684038 C 21.80377,6.8775994 18.283006,6.7398899 14.769936,8.4445144 L 8.8649079,5.0601685 C 6.6878942,8.3614545 6.210287,11.6196 8.0558438,14.818768 6.735743,17.557032 5.0245046,20.012031 5.6229614,24.139733 c 12.0477446,0.05076 5.2870076,9.952171 14.4079606,9.859394 9.108589,0.108111 2.330362,-9.85643 14.420893,-10.024472 0.30804,-3.499911 -0.901191,-6.543776 -2.47582,-9.477813 C 33.983106,11.068843 33.556133,7.9253403 31.262633,5 Z M 16.527219,18.597551 a 2.0785336,2.0663018 0 0 1 2.078529,2.066297 2.0785336,2.0663018 0 0 1 -2.078529,2.066297 2.0785336,2.0663018 0 0 1 -2.078528,-2.066297 2.0785336,2.0663018 0 0 1 2.078528,-2.066297 z m 7.007405,0 a 2.0785336,2.0663019 0 0 1 2.078529,2.066297 2.0785336,2.0663019 0 0 1 -2.078529,2.066297 2.0785336,2.0663019 0 0 1 -2.078529,-2.066297 2.0785336,2.0663019 0 0 1 2.078529,-2.066297 z" />
  </g>
  <g
     inkscape:groupmode="layer"
     id="layer5"
     inkscape:label="text"
     style="display:none">
    <path
       d="M 45.160504,29.051505 41,10.878185 h 3.414129 l 2.649378,11.62572 2.369379,-8.463568 v 0 q 0.447803,-1.543862 1.324641,-2.418178 v 0 0 q 0.876929,-0.874309 2.444065,-0.743974 v 0 l 3.320957,11.62572 1.902986,-8.500794 v 0 q 0.391784,-1.69273 1.361946,-2.529824 v 0 0 q 0.951507,-0.818403 2.761218,-0.595102 v 0 l -4.160472,18.17332 h -3.302312 l -3.358234,-11.737411 -3.28358,11.737411 z m 25.765135,-13.8021 v 0 0 q 2.070916,0 3.675428,1.004474 v 0 0 q 1.60447,0.985822 2.518648,2.511126 v 0 0 q 0.914223,1.543923 0.98883,3.422632 v 0 0 q 0.05575,1.878736 -0.951515,3.664479 v 0 0 q -0.876849,1.488082 -2.257468,2.380923 v 0 0 q -1.380615,0.874255 -2.947805,1.097461 v 0 0 q -1.567141,0.223202 -3.153004,-0.260385 v 0 0 Q 67.231583,28.586482 65.9629,27.340216 v 0 0 q -1.399243,-1.432311 -1.865685,-3.311015 v 0 0 q -0.485081,-1.878745 0.07434,-3.738847 v 0 0 q 0.223882,-0.76267 0.764915,-1.264856 v 0 0 q 0.541073,-0.483636 1.212694,-0.725445 v 0 0 q 0.690315,-0.223275 1.417923,-0.204631 v 0 0 q 0.727631,0.01844 1.361992,0.297604 v 0 0 q 0.615648,0.279032 1.044789,0.781187 v 0 0 q 0.429082,0.502323 0.522376,1.246286 v 0 0 q -0.391777,-0.297531 -0.95151,-0.316214 v 0 0 q -0.541024,0 -1.04479,0.241813 v 0 0 q -0.522379,0.241811 -0.876857,0.762616 v 0 0 Q 67.2686,21.611019 67.2686,22.373659 v 0 0 q 0,1.302084 0.559739,2.157695 v 0 0 q 0.541027,0.855666 1.361924,1.283521 v 0 0 q 0.820911,0.42781 1.772394,0.42781 v 0 0 q 0.970149,0 1.791051,-0.446409 v 0 0 q 0.820938,-0.42783 1.361978,-1.302129 v 0 0 q 0.559723,-0.874215 0.559723,-2.176365 v 0 0 q 0,-1.023 -0.373147,-1.804257 v 0 0 q -0.373157,-0.781281 -0.970149,-1.283442 v 0 0 q -0.6157,-0.502292 -1.436621,-0.706902 v 0 0 q -0.802239,-0.185946 -1.716394,-0.01843 v 0 0 Q 69.787287,18.03964 69.227577,17.77931 v 0 0 Q 68.66787,17.500289 68.014879,17.407234 v 0 0 q -0.652994,-0.09301 -1.305962,0.01844 v 0 0 q -0.653001,0.130195 -1.231357,0.465034 v 0 0 q 1.044764,-1.246255 2.425379,-1.934528 v 0 0 q 1.38064,-0.706855 3.022404,-0.706855 z m 12.574766,-4.427132 v 0 18.229232 H 80.19811 v -15.569251 0 q 0,-1.246306 0.895553,-1.953047 v 0 0 q 0.895517,-0.725451 2.406742,-0.706934 z m 2.611976,7.607969 v -2.883248 h 1.19403 v 0 q 0,-0.688292 0,-1.339288 v 0 0 q -0.01855,-0.669543 0.03717,-1.246303 v 0 0 q 0.07434,-0.595138 0.223885,-1.097432 v 0 0 q 0.13057,-0.483636 0.44776,-0.874316 v 0 0 q 0.373099,-0.446417 0.9888,-0.688242 v 0 0 q 0.597008,-0.26031 1.604498,-0.29753 v 0 0 q 1.063426,-0.037032 1.958964,0.279031 v 0 0 q 0.876868,0.316251 1.361938,0.874329 v 0 0 q 0.485097,0.557876 0.466443,1.283322 v 0 0 q 0,0.725465 -0.746303,1.54403 v 0 0 Q 93.48168,13.463755 92.99659,13.14751 v 0 0 q -0.485086,-0.316251 -0.988796,-0.334787 v 0 0 q -0.522377,-0.03703 -0.914198,0.24185 v 0 0 q -0.391788,0.278956 -0.391788,0.930033 v 0 1.562409 h 3.33959 v 0 q 0,1.302174 -0.727632,2.101962 v 0 0 q -0.727626,0.781286 -1.828349,0.781286 v 0 H 90.701812 V 29.051528 H 87.306268 V 18.430263 Z m 25.877089,-1.097439 v 0 0 q -0.2612,-0.799889 -0.9142,-1.469598 v 0 0 q -0.67162,-0.688222 -1.62314,-1.153158 v 0 0 q -0.93284,-0.465132 -2.0336,-0.706936 v 0 0 q -1.11942,-0.223094 -2.2575,-0.148804 v 0 0 q -1.13807,0.07407 -2.20151,0.502268 v 0 0 q -1.08209,0.427818 -1.94032,1.264831 v 0 0 q -0.97017,0.930032 -1.39926,2.083395 v 0 0 q -0.42911,1.153253 -0.39178,2.32511 v 0 0 q 0.0185,1.171891 0.48507,2.269404 v 0 0 q 0.44776,1.116023 1.30597,1.971685 v 0 0 q 0.83957,0.855675 2.0336,1.376484 v 0 0 q 1.17539,0.520833 2.66792,0.520833 v 0 0 q 1.77245,0 3.04111,-0.762641 v 0 0 q 1.25,-0.744084 1.73507,-2.343756 v 0 h -4.83212 v 0 q -0.67166,0 -1.19406,-0.278996 v 0 0 q -0.52236,-0.279031 -0.83954,-0.74408 v 0 0 q -0.33583,-0.446462 -0.48508,-1.023062 v 0 0 q -0.16792,-0.576636 -0.11193,-1.171863 v 0 h 11.3434 v 0 q 0.20521,2.362333 -0.52242,4.185264 v 0 0 q -0.74626,1.804297 -2.05225,3.031995 v 0 0 q -1.32464,1.209058 -3.04106,1.841503 v 0 0 q -1.73508,0.632431 -3.48885,0.595254 v 0 0 q -1.19404,-0.01844 -2.38807,-0.316251 v 0 0 q -1.1754,-0.297642 -2.25747,-0.892835 v 0 0 q -1.1008,-0.576654 -2.014945,-1.4695 v 0 0 q -0.93287,-0.892861 -1.585857,-2.064743 v 0 0 Q 96.243037,23.415332 95.944556,21.96444 v 0 0 q -0.298535,-1.45089 -0.186593,-2.845968 v 0 0 q 0.111933,-1.413675 0.634338,-2.715766 v 0 0 q 0.522376,-1.302155 1.399254,-2.399595 v 0 0 q 1.250015,-1.581077 3.208985,-2.566939 v 0 0 q 1.95896,-0.967199 4.49629,-0.967199 v 0 0 q 1.86572,0 3.5635,0.539388 v 0 0 q 1.67913,0.520846 2.74256,1.469419 v 0 0 q 1.04476,0.930041 1.21268,2.176338 v 0 0 q 0.14927,1.246293 -1.02611,2.678685 z m 14.01131,6.510347 v 0 0 q -1.41793,0.372025 -2.57462,0.260423 v 0 0 q -1.17541,-0.09301 -1.90303,-0.55803 v 0 0 q -0.74628,-0.446418 -1.00748,-1.20908 v 0 0 q -0.24248,-0.781277 0.14924,-1.748535 v 0 0 q 0.80226,0.688239 1.88441,0.744108 v 0 0 q 1.06341,0.07407 2.05224,-0.03703 v 0 0 q 0.83953,-0.07407 1.26866,-0.353469 v 0 0 q 0.4291,-0.297568 0.54102,-0.669632 v 0 0 q 0.11197,-0.37206 -0.0743,-0.799822 v 0 0 q -0.18653,-0.40924 -0.59696,-0.744106 v 0 0 q -0.39181,-0.353395 -0.98888,-0.558041 v 0 0 q -0.57833,-0.204629 -1.28734,-0.185909 v 0 0 q -0.76491,0.0556 -1.43652,0.371984 v 0 0 q -0.69029,0.31625 -1.2127,0.855612 v 0 0 q -0.5224,0.558063 -0.8209,1.283513 v 0 0 q -0.31716,0.725449 -0.35449,1.618276 v 0 0 q -0.0186,0.725447 0.18656,1.432322 v 0 0 q 0.1866,0.688248 0.57838,1.283475 v 0 0 q 0.39178,0.576646 0.93287,0.9859 v 0 0 q 0.5597,0.409187 1.26861,0.502196 v 0 0 q 0.98888,0.186021 2.0336,-0.130229 v 0 0 q 1.04478,-0.297605 1.84706,-1.134646 v 0 l 2.74258,1.320678 v 0 q -1.06345,1.599684 -2.53736,2.287939 v 0 0 q -1.45526,0.688249 -3.33955,0.688249 v 0 0 q -1.75381,0 -3.05975,-0.613844 v 0 0 q -1.32468,-0.613835 -2.20151,-1.636913 v 0 0 q -0.87686,-1.004458 -1.30601,-2.287939 v 0 0 q -0.42908,-1.302073 -0.41044,-2.641373 v 0 0 q 0.037,-1.339316 0.52239,-2.622762 v 0 0 q 0.50374,-1.302121 1.4366,-2.287905 v 0 0 q 1.04478,-1.116138 2.44404,-1.581101 v 0 0 q 1.39926,-0.46508 2.87316,-0.46508 v 0 0 q 1.60452,0 2.77991,0.539421 v 0 0 q 1.17539,0.539493 1.92159,1.395113 v 0 0 q 0.72763,0.837101 0.95155,1.878729 v 0 0 q 0.24256,1.023055 -0.037,1.990329 v 0 0 q -0.26124,0.967256 -1.08212,1.729929 v 0 0 q -0.80227,0.762628 -2.18288,1.097443 z m 9.02993,-8.277491 v 1.562502 0 q 0.20521,-0.46507 0.63438,-0.799822 v 0 0 q 0.42909,-0.334861 0.95148,-0.576712 v 0 0 q 0.52238,-0.241774 1.08207,-0.372056 v 0 0 q 0.54107,-0.130155 1.00748,-0.148729 v 0 0 q 1.0075,-0.05552 1.959,0.278996 v 0 0 q 0.97013,0.316141 1.79107,1.134673 v 0 0 q 1.17538,1.209106 1.17538,3.515655 v 0 8.891343 h -3.35824 v 0 q 0,-0.427827 0.0185,-1.190479 v 0 0 q 0.0185,-0.762659 0.0185,-1.655523 v 0 0 q 0,-0.892853 0,-1.860104 v 0 0 q 0,-0.967267 -0.0373,-1.822941 v 0 0 q -0.0185,-0.855663 -0.0742,-1.543884 v 0 0 q -0.056,-0.669647 -0.13061,-0.985832 v 0 0 q -0.20521,-0.837052 -0.80222,-1.246254 v 0 0 q -0.57837,-0.409257 -1.24999,-0.409257 v 0 0 q -0.89555,0 -1.3993,0.483625 v 0 0 q -0.48511,0.464989 -0.48511,1.246258 v 0 0 q -0.31714,-0.09302 -0.63428,-0.427792 v 0 0 q -0.3171,-0.31625 -0.46638,-0.688231 v 0 0.706755 9.393659 H 131.6542 V 15.565664 Z"
       id="path8"
       style="display:inline;fill:#fffdfd;fill-opacity:1;stroke:none;stroke-width:1.85932;stroke-miterlimit:4;stroke-dasharray:none;stroke-opacity:1" />
  </g>
  <g
     inkscape:groupmode="layer"
     id="layer2"
     inkscape:label="text 1">
    <g
       data-v-fde0c5aa=""
       id="f7b7e668-0d38-49d5-9692-0178f54c07b9"
       fill="#ffffff"
       transform="matrix(0.63323538,0,0,0.63323538,160.83485,-15.653755)">
      <path
         d="m -183.15404,70.751676 -6.08815,-28.845607 h 4.99611 l 3.87674,18.452922 3.46723,-13.433725 v 0 q 0.65522,-2.45055 1.93837,-3.838209 v 0 0 q 1.28316,-1.387659 3.57643,-1.180988 v 0 l 4.85959,18.452922 2.7847,-13.492775 v 0 q 0.57329,-2.686745 1.99297,-4.015355 v 0 0 q 1.39235,-1.299087 4.04053,-0.944792 v 0 l -6.0881,28.845607 h -4.83231 l -4.91419,-18.630069 -4.80493,18.630069 z m 37.70268,-21.907306 v 0 0 q 3.03046,0 5.37833,1.594332 v 0 0 q 2.34788,1.564806 3.68563,3.985829 v 0 0 q 1.33775,2.45055 1.44694,5.432541 v 0 0 q 0.0821,2.981991 -1.39234,5.816361 v 0 0 q -1.28316,2.361974 -3.3034,3.779159 v 0 0 q -2.02029,1.387659 -4.31357,1.741957 v 0 0 q -2.29332,0.354295 -4.61387,-0.413347 v 0 0 q -2.29328,-0.767642 -4.14978,-2.745795 v 0 0 q -2.04756,-2.273399 -2.7301,-5.255393 v 0 0 q -0.70981,-2.981991 0.10898,-5.934459 v 0 0 q 0.32747,-1.210512 1.11936,-2.007677 v 0 0 q 0.79174,-0.767641 1.77458,-1.151462 v 0 0 q 1.01012,-0.354298 2.07484,-0.324772 v 0 0 q 1.06477,0.02952 1.99302,0.472396 v 0 0 q 0.90093,0.44287 1.52881,1.240035 v 0 0 q 0.62795,0.797167 0.76446,1.978153 v 0 0 q -0.57334,-0.472393 -1.39234,-0.501919 v 0 0 q -0.79174,0 -1.52887,0.383821 v 0 0 q -0.76441,0.383821 -1.28316,1.210511 v 0 0 q -0.51859,0.797168 -0.51859,2.00768 v 0 0 q 0,2.066725 0.81901,3.424861 v 0 0 q 0.79173,1.358136 1.99296,2.037202 v 0 0 q 1.20124,0.679067 2.59364,0.679067 v 0 0 q 1.41962,0 2.62086,-0.708593 v 0 0 q 1.20128,-0.679066 1.99302,-2.066725 v 0 0 q 0.819,-1.387659 0.819,-3.454388 v 0 0 q 0,-1.623858 -0.54602,-2.863893 v 0 0 q -0.54602,-1.240037 -1.41968,-2.037202 v 0 0 q -0.90092,-0.797168 -2.10216,-1.121939 v 0 0 q -1.17396,-0.295246 -2.51171,-0.02952 v 0 0 q -0.57329,-0.738119 -1.39235,-1.151463 v 0 0 q -0.819,-0.44287 -1.77453,-0.590494 v 0 0 q -0.95557,-0.147616 -1.91109,0.02952 v 0 0 q -0.95553,0.206662 -1.80186,0.738116 v 0 0 q 1.52887,-1.978154 3.54911,-3.070567 v 0 0 q 2.02029,-1.121936 4.42276,-1.121936 z m 18.4009,-7.026873 v 0 28.934179 h -4.83226 v -24.71215 0 q 0,-1.978154 1.31043,-3.100093 v 0 0 q 1.31048,-1.151462 3.52183,-1.121936 z m 3.82215,12.075592 v -4.576326 h 1.74725 v 0 q 0,-1.092414 0,-2.125775 v 0 0 q -0.0268,-1.06289 0.0548,-1.978153 v 0 0 q 0.10898,-0.944792 0.32747,-1.741957 v 0 0 q 0.19112,-0.767641 0.65521,-1.387659 v 0 0 q 0.54602,-0.708592 1.447,-1.092413 v 0 0 q 0.8736,-0.413347 2.34788,-0.472396 v 0 0 q 1.55614,-0.05905 2.86662,0.44287 v 0 0 q 1.2831,0.501919 1.99296,1.387659 v 0 0 q 0.70981,0.885743 0.68254,2.037205 v 0 0 q 0,1.15146 -1.09204,2.450546 v 0 0 q -0.24587,-0.82669 -0.95557,-1.328609 v 0 0 q -0.70982,-0.50192 -1.44695,-0.531446 v 0 0 q -0.76441,-0.05905 -1.33775,0.383821 v 0 0 q -0.5733,0.44287 -0.5733,1.476234 v 0 2.480073 h 4.88686 v 0 q 0,2.066728 -1.06471,3.336289 v 0 0 q -1.06477,1.240037 -2.67551,1.240037 v 0 h -1.14664 v 16.858587 h -4.96883 V 53.893089 Z m 23.588121,16.858587 h -9.145881 v -24.033084 0 q 0.0268,-4.310601 3.65835,-4.901095 v 0 h 5.241819 v 0 q 1.965641,0 3.494509,0.82669 v 0 0 q 1.55614,0.826691 2.620909,2.273399 v 0 0 q 0.846329,1.12194 1.201234,2.509599 v 0 0 q 0.382231,1.387659 0.218494,2.745794 v 0 0 q -0.163736,1.358136 -0.819003,2.598171 v 0 0 q -0.682539,1.240038 -1.883774,2.125777 v 0 0 q 1.55614,0.649544 2.620909,1.801006 v 0 0 q 1.037444,1.180986 1.583465,2.568645 v 0 0 q 0.518588,1.417185 0.54602,2.952468 v 0 0 q 0.02684,1.50576 -0.464367,2.952468 v 0 0 q -0.464367,1.417185 -1.419621,2.627697 v 0 0 q -0.955522,1.240034 -2.375197,1.978153 v 0 0 q -1.829176,0.974312 -5.077973,0.974312 z m -4.095181,-23.619737 v 0 18.423396 0 q 0.60062,0 1.36508,0.02952 v 0 0 q 0.76441,0 1.58341,0 v 0 0 q 0.791732,0 1.556193,-0.05905 v 0 0 q 0.764407,-0.05905 1.337753,-0.265708 v 0 0 q 1.446946,-0.413347 2.074888,-1.417185 v 0 0 q 0.600617,-1.003841 0.46383,-2.125777 v 0 0 q -0.136357,-1.121937 -0.928251,-2.125778 v 0 0 q -0.819004,-0.974312 -2.184081,-1.299084 v 0 0 q -0.40961,-0.08857 -1.037445,-0.147615 v 0 0 q -0.600617,-0.05905 -1.283157,0 v 0 0 q -0.65521,0.05905 -1.2285,0.265737 v 0 0 q -0.57335,0.206662 -0.84633,0.708593 v 0 0 q -0.46437,-1.180989 -0.54602,-2.125778 v 0 0 q -0.10952,-0.974315 0.27271,-1.77148 v 0 0 q 0.35485,-0.797167 1.25583,-1.328609 v 0 0 q 0.90098,-0.531445 2.429796,-0.856217 v 0 0 q 0.955576,-0.206662 1.583464,-1.033364 v 0 0 q 0.627943,-0.826691 0.627943,-1.948627 v 0 0 q 0,-1.210512 -0.737136,-1.889581 v 0 0 q -0.764407,-0.708593 -1.719983,-0.915263 v 0 0 q -0.409614,-0.08857 -0.955524,-0.118093 v 0 0 q -0.57329,-0.05905 -1.11931,-0.05905 v 0 0 q -0.54602,0 -1.09204,0.02952 v 0 0 q -0.54602,0.02952 -0.87366,0.02952 z m 32.024091,23.619737 v -2.332448 0 q -1.446946,1.505757 -3.139604,2.21435 v 0 0 q -1.719983,0.708592 -3.439913,0.649543 v 0 0 q -1.719983,-0.05905 -3.330719,-0.856214 v 0 0 q -1.638061,-0.767641 -2.866621,-2.243875 v 0 0 q -1.25583,-1.476235 -1.992966,-3.513437 v 0 0 q -0.737136,-2.037202 -0.737136,-4.664899 v 0 0 q 0,-2.480072 0.791733,-4.576323 v 0 0 q 0.791732,-2.096255 2.156756,-3.602012 v 0 0 q 1.365078,-1.476234 3.112333,-2.273399 v 0 0 q 1.719983,-0.826691 3.603756,-0.738118 v 0 0 q 1.829177,0.08857 2.948489,0.885739 v 0 0 q 1.092041,0.797168 1.61079,1.889581 v 0 0 q 0.518588,1.062888 0.54602,2.155301 v 0 0 q 0,1.092413 -0.327473,1.77148 v 0 0 q -0.655213,-1.033364 -1.829176,-1.387659 v 0 0 q -1.201234,-0.354298 -2.293275,-0.354298 v 0 0 q -1.77458,0 -2.948543,0.944792 v 0 0 q -1.201234,0.915263 -1.801851,2.332448 v 0 0 q -0.600617,1.387659 -0.627942,3.04104 v 0 0 q -0.02684,1.623859 0.573345,3.011518 v 0 0 q 0.600617,1.417185 1.801852,2.361974 v 0 0 q 1.201288,0.915266 3.003139,0.915266 v 0 0 q 1.528868,0 2.511662,-0.738116 v 0 0 q 0.982847,-0.738118 1.583464,-1.919104 v 0 0 q 0.600671,-1.180988 0.846329,-2.657222 v 0 0 q 0.245873,-1.476235 0.245873,-2.922943 v 0 -6.524954 -2.273398 h 4.968834 v 21.405387 z m 18.619345,-14.821384 v 0 0 q -0.300094,-0.797168 -0.846329,-1.269561 v 0 0 q -0.54602,-0.472396 -1.173963,-0.708593 v 0 0 q -0.627942,-0.265737 -1.201234,-0.265737 v 0 0 q -0.600617,-0.02952 -0.982847,0.118092 v 0 0 q -0.682539,0.265708 -0.900926,0.856217 v 0 0 q -0.218494,0.590492 0.218494,1.151463 v 0 0 q 0.327473,0.413344 1.092041,0.797164 v 0 0 q 0.737136,0.383821 1.638061,0.856217 v 0 0 q 0.928251,0.472393 1.911099,1.092414 v 0 0 q 0.955522,0.590491 1.774526,1.417182 v 0 0 q 0.791732,0.82669 1.310481,1.94863 v 0 0 q 0.518588,1.121936 0.518588,2.627696 v 0 0 q 0,1.801003 -0.737136,3.129616 v 0 0 q -0.70981,1.358133 -1.911045,2.184824 v 0 0 q -1.201234,0.82669 -2.730102,1.121939 v 0 0 q -1.501542,0.324772 -3.057736,0.05905 v 0 0 q -1.528867,-0.236185 -3.003085,-1.121939 v 0 0 q -1.446946,-0.88574 -2.511716,-2.421023 v 0 l 3.057736,-3.572486 v 0 q 0.955523,1.240038 2.020238,1.801006 v 0 0 q 1.037445,0.531445 1.938424,0.590494 v 0 0 q 0.900926,0.05905 1.501543,-0.295249 v 0 0 q 0.627888,-0.354294 0.764407,-0.944789 v 0 0 q 0.108978,-0.590491 -0.327473,-1.328609 v 0 0 q -0.464367,-0.708593 -1.77458,-1.417185 v 0 0 q -1.228559,-0.679067 -2.375197,-1.358133 v 0 0 q -1.173962,-0.708593 -2.074888,-1.594333 v 0 0 q -0.900926,-0.856216 -1.446946,-1.919104 v 0 0 q -0.546021,-1.092413 -0.546021,-2.539124 v 0 0 q 0,-1.476231 0.573346,-2.627694 v 0 0 q 0.573292,-1.180988 1.528814,-1.94863 v 0 0 q 0.955576,-0.797165 2.156811,-1.151462 v 0 0 q 1.228559,-0.383821 2.538987,-0.354295 v 0 0 q 2.211406,0.147615 3.385315,1.062887 v 0 0 q 1.146638,0.944789 1.446947,2.125778 v 0 0 q 0.273251,1.151462 -0.191116,2.273399 v 0 0 q -0.491209,1.121939 -1.583464,1.623858 z m 19.902447,6.554477 v 0 0 q -2.047616,0.590494 -3.767546,0.413346 v 0 0 q -1.692658,-0.147615 -2.784699,-0.885742 v 0 0 q -1.092041,-0.708593 -1.447,-1.919105 v 0 0 q -0.354851,-1.240034 0.218495,-2.775317 v 0 0 q 1.173962,1.092413 2.730102,1.180985 v 0 0 q 1.583464,0.118092 3.03041,-0.05905 v 0 0 q 1.22856,-0.118092 1.856448,-0.560968 v 0 0 q 0.627943,-0.472393 0.791733,-1.062888 v 0 0 q 0.136357,-0.590494 -0.136358,-1.26956 v 0 0 q -0.245873,-0.649544 -0.846329,-1.180989 v 0 0 q -0.600671,-0.560968 -1.447,-0.88574 v 0 0 q -0.8736,-0.324771 -1.911044,-0.295245 v 0 0 q -1.092041,0.08857 -2.102214,0.590491 v 0 0 q -0.982794,0.501922 -1.747254,1.358136 v 0 0 q -0.764408,0.88574 -1.228506,2.037202 v 0 0 q -0.464367,1.151463 -0.491209,2.568648 v 0 0 q -0.02684,1.151462 0.245873,2.273398 v 0 0 q 0.300094,1.092414 0.8736,2.037203 v 0 0 q 0.573346,0.915266 1.365078,1.564809 v 0 0 q 0.791733,0.649543 1.829177,0.797165 v 0 0 q 1.446946,0.295248 2.975814,-0.206662 v 0 0 q 1.528814,-0.472396 2.730102,-1.801006 v 0 l 4.013204,2.096252 v 0 q -1.583464,2.539121 -3.712896,3.631535 v 0 0 q -2.129485,1.092413 -4.886912,1.092413 v 0 0 q -2.566312,0 -4.504682,-0.974315 v 0 0 q -1.911045,-0.974312 -3.194201,-2.598171 v 0 0 q -1.283156,-1.594332 -1.911098,-3.631534 v 0 0 q -0.627889,-2.066729 -0.600617,-4.192503 v 0 0 q 0.02684,-2.125778 0.764461,-4.16298 v 0 0 q 0.737135,-2.066728 2.10216,-3.631535 v 0 0 q 1.528868,-1.771483 3.576431,-2.509598 v 0 0 q 2.047563,-0.738116 4.177048,-0.738116 v 0 0 q 2.375197,0 4.09518,0.856214 v 0 0 q 1.719983,0.856217 2.784699,2.214353 v 0 0 q 1.064716,1.32861 1.419674,2.981991 v 0 0 q 0.354852,1.623856 -0.05476,3.159139 v 0 0 q -0.40961,1.535283 -1.583411,2.745795 v 0 0 q -1.201288,1.210511 -3.221526,1.741956 z"
         id="path8-2"
         style="stroke-width:2.83911" />
    </g>
  </g>
</svg>
